<?xml version="1.0" encoding="UTF-8"?>
<!DOCTYPE svg PUBLIC "-//W3C//DTD SVG 1.1//EN" "http://www.w3.org/Graphics/SVG/1.1/DTD/svg11.dtd">
<svg xmlns="http://www.w3.org/2000/svg" version="1.1" width="39px" height="48px" style="shape-rendering:geometricPrecision; text-rendering:geometricPrecision; image-rendering:optimizeQuality; fill-rule:evenodd; clip-rule:evenodd" xmlns:xlink="http://www.w3.org/1999/xlink">
<g><path style="opacity:0.997" fill="#7596fe" d="M 14.5,-0.5 C 21.1667,-0.5 27.8333,-0.5 34.5,-0.5C 35.5676,0.434475 36.901,0.767809 38.5,0.5C 38.5,3.5 38.5,6.5 38.5,9.5C 16.0119,1.83109 7.17857,9.49775 12,32.5C 15.688,38.2631 20.8547,40.5964 27.5,39.5C 28.4941,34.544 28.8275,29.544 28.5,24.5C 31.8333,24.5 35.1667,24.5 38.5,24.5C 38.5,31.5 38.5,38.5 38.5,45.5C 36.3024,45.8751 34.3024,46.5418 32.5,47.5C 26.8333,47.5 21.1667,47.5 15.5,47.5C 12.4375,46.3009 9.4375,44.8009 6.5,43C 3.75902,39.6589 1.42568,36.1589 -0.5,32.5C -0.5,26.5 -0.5,20.5 -0.5,14.5C 2.16667,7.16667 7.16667,2.16667 14.5,-0.5 Z"/></g>
<g><path style="opacity:0.924" fill="#fed356" d="M 38.5,12.5 C 38.5,16.1667 38.5,19.8333 38.5,23.5C 35.1667,23.5 31.8333,23.5 28.5,23.5C 28.5,19.8333 28.5,16.1667 28.5,12.5C 31.8333,12.5 35.1667,12.5 38.5,12.5 Z"/></g>
</svg>
