<svg width="30" height="31" viewBox="0 0 30 31" fill="none" xmlns="http://www.w3.org/2000/svg">
<path d="M15 15.4937V2.99365" stroke="#7C7C7C" stroke-width="1.25" stroke-miterlimit="10" stroke-linecap="round"/>
<path d="M21.375 4.24365H20.3125C17.3785 4.24365 15 6.62214 15 9.55615V11.6812H16.0625C18.9965 11.6812 21.375 9.30266 21.375 6.36865V4.24365Z" stroke="#7C7C7C" stroke-width="1.25" stroke-miterlimit="10" stroke-linecap="square"/>
<path d="M23.75 19.2437L22.8066 25.8472C22.6307 27.0788 21.5759 27.9937 20.3318 27.9937H9.66824C8.42411 27.9937 7.36931 27.0788 7.19336 25.8472L6.25 19.2437" stroke="#7C7C7C" stroke-width="1.25" stroke-miterlimit="10"/>
<path d="M25 15.4937H5C4.30964 15.4937 3.75 16.0533 3.75 16.7437V17.9937C3.75 18.684 4.30964 19.2437 5 19.2437H25C25.6904 19.2437 26.25 18.684 26.25 17.9937V16.7437C26.25 16.0533 25.6904 15.4937 25 15.4937Z" stroke="#7C7C7C" stroke-width="1.25" stroke-miterlimit="10" stroke-linecap="square"/>
</svg>
