<svg width="248" height="92" viewBox="0 0 248 92" fill="none" xmlns="http://www.w3.org/2000/svg">
<path d="M6.83667 0.542561H12.3753V1.83114H6.83667V0.542561ZM13.9838 0.542561H19.5225V1.83114H13.9838V0.542561ZM21.131 0.542561H26.6696V1.83114H21.131V0.542561ZM28.2782 0.542561H33.8168V1.83114H28.2782V0.542561ZM35.4253 0.542561H40.964V1.83114H35.4253V0.542561ZM42.5725 0.542561H48.1111V1.83114H42.5725V0.542561ZM49.7197 0.542561H55.2583V1.83114H49.7197V0.542561ZM5.44291 15.3391V16.7633H4.96817C4.41054 16.7633 3.87928 16.6804 3.3744 16.5146C2.87705 16.3564 2.43999 16.104 2.06321 15.7573C1.68643 15.4182 1.38501 14.9812 1.15894 14.4461C0.940409 13.9111 0.831144 13.2744 0.831144 12.5359V9.55178C0.831144 8.8133 0.940409 8.17654 1.15894 7.64152C1.38501 7.10649 1.68643 6.66943 2.06321 6.33033C2.43999 5.98369 2.87705 5.73125 3.3744 5.573C3.87928 5.40722 4.41054 5.32433 4.96817 5.32433H5.44291V6.74855H5.03599C4.64414 6.74855 4.28243 6.8013 3.95087 6.9068C3.6193 7.0123 3.32919 7.18185 3.08051 7.41545C2.83937 7.64905 2.64722 7.95047 2.50404 8.31972C2.3684 8.68142 2.30058 9.12225 2.30058 9.64221V12.4454C2.30058 12.9654 2.3684 13.41 2.50404 13.7792C2.64722 14.1409 2.83937 14.4386 3.08051 14.6722C3.32919 14.9058 3.6193 15.0754 3.95087 15.1809C4.28243 15.2864 4.64414 15.3391 5.03599 15.3391H5.44291ZM6.83667 15.5426H12.3753V16.8311H6.83667V15.5426ZM13.9838 15.5426H19.5225V16.8311H13.9838V15.5426ZM21.131 15.5426H26.6696V16.8311H21.131V15.5426ZM28.2782 15.5426H33.8168V16.8311H28.2782V15.5426ZM35.4253 15.5426H40.964V16.8311H35.4253V15.5426ZM42.5725 15.5426H48.1111V16.8311H42.5725V15.5426ZM49.7197 15.5426H55.2583V16.8311H49.7197V15.5426ZM57.059 15.3391C57.4508 15.3391 57.8125 15.2864 58.1441 15.1809C58.4757 15.0754 58.762 14.9058 59.0032 14.6722C59.2518 14.4386 59.444 14.1409 59.5796 13.7792C59.7228 13.41 59.7944 12.9654 59.7944 12.4454V9.64221C59.7944 9.12225 59.7228 8.68142 59.5796 8.31972C59.444 7.95047 59.2518 7.64905 59.0032 7.41545C58.762 7.18185 58.4757 7.0123 58.1441 6.9068C57.8125 6.8013 57.4508 6.74855 57.059 6.74855H56.6521V5.32433H57.1268C57.6844 5.32433 58.2119 5.40722 58.7093 5.573C59.2141 5.73125 59.655 5.98369 60.0318 6.33033C60.4085 6.66943 60.7062 7.10649 60.9247 7.64152C61.1508 8.17654 61.2638 8.8133 61.2638 9.55178V12.5359C61.2638 13.2744 61.1508 13.9111 60.9247 14.4461C60.7062 14.9812 60.4085 15.4182 60.0318 15.7573C59.655 16.104 59.2141 16.3564 58.7093 16.5146C58.2119 16.6804 57.6844 16.7633 57.1268 16.7633H56.6521V15.3391H57.059ZM6.83667 30.5426H12.3753V31.8311H6.83667V30.5426ZM13.9838 30.5426H19.5225V31.8311H13.9838V30.5426ZM21.131 30.5426H26.6696V31.8311H21.131V30.5426ZM28.2782 30.5426H33.8168V31.8311H28.2782V30.5426ZM35.4253 30.5426H40.964V31.8311H35.4253V30.5426ZM49.7197 30.5426H55.2583V31.8311H49.7197V30.5426ZM56.8668 30.5426H62.4055V31.8311H56.8668V30.5426ZM64.014 30.5426H69.5526V31.8311H64.014V30.5426ZM71.1611 30.5426H76.6998V31.8311H71.1611V30.5426ZM85.4555 30.5426H90.9941V31.8311H85.4555V30.5426ZM92.6026 30.5426H98.1413V31.8311H92.6026V30.5426ZM99.7498 30.5426H105.288V31.8311H99.7498V30.5426ZM106.897 30.5426H112.436V31.8311H106.897V30.5426ZM121.191 30.5426H126.73V31.8311H121.191V30.5426ZM128.338 30.5426H133.877V31.8311H128.338V30.5426ZM135.486 30.5426H141.024V31.8311H135.486V30.5426ZM142.633 30.5426H148.171V31.8311H142.633V30.5426ZM164.074 30.5426H169.613V31.8311H164.074V30.5426ZM171.221 30.5426H176.76V31.8311H171.221V30.5426ZM178.369 30.5426H183.907V31.8311H178.369V30.5426ZM185.516 30.5426H191.054V31.8311H185.516V30.5426ZM214.104 30.5426H219.643V31.8311H214.104V30.5426ZM221.252 30.5426H226.79V31.8311H221.252V30.5426ZM228.399 30.5426H233.937V31.8311H228.399V30.5426ZM235.546 30.5426H241.085V31.8311H235.546V30.5426ZM3.13703 46.7633H1.78063V35.3243H3.13703V46.7633ZM21.131 45.5426H26.6696V46.8311H21.131V45.5426ZM28.2782 45.5426H33.8168V46.8311H28.2782V45.5426ZM35.4253 45.5426H40.964V46.8311H35.4253V45.5426ZM42.7646 45.3391C43.1565 45.3391 43.5182 45.2864 43.8498 45.1809C44.1813 45.0754 44.4677 44.9058 44.7088 44.6722C44.9575 44.4386 45.1497 44.1409 45.2853 43.7792C45.4285 43.41 45.5001 42.9654 45.5001 42.4454V39.6422C45.5001 39.1223 45.4285 38.6814 45.2853 38.3197C45.1497 37.9505 44.9575 37.6491 44.7088 37.4154C44.4677 37.1818 44.1813 37.0123 43.8498 36.9068C43.5182 36.8013 43.1565 36.7486 42.7646 36.7486H42.3577V35.3243H42.8325C43.3901 35.3243 43.9176 35.4072 44.4149 35.573C44.9198 35.7312 45.3607 35.9837 45.7374 36.3303C46.1142 36.6694 46.4119 37.1065 46.6304 37.6415C46.8565 38.1765 46.9695 38.8133 46.9695 39.5518V42.5359C46.9695 43.2744 46.8565 43.9111 46.6304 44.4461C46.4119 44.9812 46.1142 45.4182 45.7374 45.7573C45.3607 46.104 44.9198 46.3564 44.4149 46.5146C43.9176 46.6804 43.3901 46.7633 42.8325 46.7633H42.3577V45.3391H42.7646ZM56.8668 45.5426H62.4055V46.8311H56.8668V45.5426ZM64.014 45.5426H69.5526V46.8311H64.014V45.5426ZM71.1611 45.5426H76.6998V46.8311H71.1611V45.5426ZM78.5005 45.3391C78.8923 45.3391 79.254 45.2864 79.5856 45.1809C79.9172 45.0754 80.2035 44.9058 80.4446 44.6722C80.6933 44.4386 80.8855 44.1409 81.0211 43.7792C81.1643 43.41 81.2359 42.9654 81.2359 42.4454V39.6422C81.2359 39.1223 81.1643 38.6814 81.0211 38.3197C80.8855 37.9505 80.6933 37.6491 80.4446 37.4154C80.2035 37.1818 79.9172 37.0123 79.5856 36.9068C79.254 36.8013 78.8923 36.7486 78.5005 36.7486H78.0935V35.3243H78.5683C79.1259 35.3243 79.6534 35.4072 80.1508 35.573C80.6556 35.7312 81.0965 35.9837 81.4732 36.3303C81.85 36.6694 82.1477 37.1065 82.3662 37.6415C82.5923 38.1765 82.7053 38.8133 82.7053 39.5518V42.5359C82.7053 43.2744 82.5923 43.9111 82.3662 44.4461C82.1477 44.9812 81.85 45.4182 81.4732 45.7573C81.0965 46.104 80.6556 46.3564 80.1508 46.5146C79.6534 46.6804 79.1259 46.7633 78.5683 46.7633H78.0935V45.3391H78.5005ZM92.6026 45.5426H98.1413V46.8311H92.6026V45.5426ZM117.492 46.7633H116.135V35.3243H117.492V46.7633ZM135.486 45.5426H141.024V46.8311H135.486V45.5426ZM154.889 46.006L153.589 46.4129L150.209 36.0817L151.498 35.6747L154.889 46.006ZM160.375 46.7633H159.018V35.3243H160.375V46.7633ZM178.369 45.5426H183.907V46.8311H178.369V45.5426ZM197.772 46.006L196.472 46.4129L193.092 36.0817L194.381 35.6747L197.772 46.006ZM210.778 35.6747L212.066 36.0817L208.687 46.4129L207.387 46.006L210.778 35.6747ZM221.252 45.5426H226.79V46.8311H221.252V45.5426ZM242.885 45.3391C243.277 45.3391 243.639 45.2864 243.97 45.1809C244.302 45.0754 244.588 44.9058 244.829 44.6722C245.078 44.4386 245.27 44.1409 245.406 43.7792C245.549 43.41 245.621 42.9654 245.621 42.4454V39.6422C245.621 39.1223 245.549 38.6814 245.406 38.3197C245.27 37.9505 245.078 37.6491 244.829 37.4154C244.588 37.1818 244.302 37.0123 243.97 36.9068C243.639 36.8013 243.277 36.7486 242.885 36.7486H242.478V35.3243H242.953C243.511 35.3243 244.038 35.4072 244.536 35.573C245.04 35.7312 245.481 35.9837 245.858 36.3303C246.235 36.6694 246.532 37.1065 246.751 37.6415C246.977 38.1765 247.09 38.8133 247.09 39.5518V42.5359C247.09 43.2744 246.977 43.9111 246.751 44.4461C246.532 44.9812 246.235 45.4182 245.858 45.7573C245.481 46.104 245.04 46.3564 244.536 46.5146C244.038 46.6804 243.511 46.7633 242.953 46.7633H242.478V45.3391H242.885ZM3.13703 61.7633H1.78063V50.3243H3.13703V61.7633ZM17.4314 61.7633H16.075V50.3243H17.4314V61.7633ZM38.8728 61.7633H37.5164V50.3243H38.8728V61.7633ZM53.1672 61.7633H51.8108V50.3243H53.1672V61.7633ZM76.9146 60.3391V61.7633H76.4398C75.8822 61.7633 75.3509 61.6804 74.846 61.5146C74.3487 61.3564 73.9116 61.104 73.5349 60.7573C73.1581 60.4182 72.8566 59.9812 72.6306 59.4461C72.4121 58.9111 72.3028 58.2744 72.3028 57.5359V54.5518C72.3028 53.8133 72.4121 53.1765 72.6306 52.6415C72.8566 52.1065 73.1581 51.6694 73.5349 51.3303C73.9116 50.9837 74.3487 50.7312 74.846 50.573C75.3509 50.4072 75.8822 50.3243 76.4398 50.3243H76.9146V51.7486H76.5076C76.1158 51.7486 75.7541 51.8013 75.4225 51.9068C75.0909 52.0123 74.8008 52.1818 74.5522 52.4154C74.311 52.6491 74.1189 52.9505 73.9757 53.3197C73.84 53.6814 73.7722 54.1223 73.7722 54.6422V57.4454C73.7722 57.9654 73.84 58.41 73.9757 58.7792C74.1189 59.1409 74.311 59.4386 74.5522 59.6722C74.8008 59.9058 75.0909 60.0754 75.4225 60.1809C75.7541 60.2864 76.1158 60.3391 76.5076 60.3391H76.9146ZM91.2089 60.3391V61.7633H90.7341C90.1765 61.7633 89.6453 61.6804 89.1404 61.5146C88.643 61.3564 88.206 61.104 87.8292 60.7573C87.4524 60.4182 87.151 59.9812 86.9249 59.4461C86.7064 58.9111 86.5971 58.2744 86.5971 57.5359V54.5518C86.5971 53.8133 86.7064 53.1765 86.9249 52.6415C87.151 52.1065 87.4524 51.6694 87.8292 51.3303C88.206 50.9837 88.643 50.7312 89.1404 50.573C89.6453 50.4072 90.1765 50.3243 90.7341 50.3243H91.2089V51.7486H90.802C90.4101 51.7486 90.0484 51.8013 89.7168 51.9068C89.3853 52.0123 89.0952 52.1818 88.8465 52.4154C88.6053 52.6491 88.4132 52.9505 88.27 53.3197C88.1344 53.6814 88.0666 54.1223 88.0666 54.6422V57.4454C88.0666 57.9654 88.1344 58.41 88.27 58.7792C88.4132 59.1409 88.6053 59.4386 88.8465 59.6722C89.0952 59.9058 89.3853 60.0754 89.7168 60.1809C90.0484 60.2864 90.4101 60.3391 90.802 60.3391H91.2089ZM103.197 61.7633H101.841V50.3243H103.197V61.7633ZM117.492 61.7633H116.135V50.3243H117.492V61.7633ZM131.786 61.7633H130.43V50.3243H131.786V61.7633ZM146.08 61.7633H144.724V50.3243H146.08V61.7633ZM160.375 61.7633H159.018V50.3243H160.375V61.7633ZM174.669 61.7633H173.313V50.3243H174.669V61.7633ZM188.963 61.7633H187.607V50.3243H188.963V61.7633ZM205.564 60.3391V61.7633H205.089C204.531 61.7633 204 61.6804 203.495 61.5146C202.998 61.3564 202.561 61.104 202.184 60.7573C201.807 60.4182 201.506 59.9812 201.28 59.4461C201.061 58.9111 200.952 58.2744 200.952 57.5359V54.5518C200.952 53.8133 201.061 53.1765 201.28 52.6415C201.506 52.1065 201.807 51.6694 202.184 51.3303C202.561 50.9837 202.998 50.7312 203.495 50.573C204 50.4072 204.531 50.3243 205.089 50.3243H205.564V51.7486H205.157C204.765 51.7486 204.403 51.8013 204.071 51.9068C203.74 52.0123 203.45 52.1818 203.201 52.4154C202.96 52.6491 202.768 52.9505 202.625 53.3197C202.489 53.6814 202.421 54.1223 202.421 54.6422V57.4454C202.421 57.9654 202.489 58.41 202.625 58.7792C202.768 59.1409 202.96 59.4386 203.201 59.6722C203.45 59.9058 203.74 60.0754 204.071 60.1809C204.403 60.2864 204.765 60.3391 205.157 60.3391H205.564ZM219.858 60.3391V61.7633H219.383C218.825 61.7633 218.294 61.6804 217.789 61.5146C217.292 61.3564 216.855 61.104 216.478 60.7573C216.101 60.4182 215.8 59.9812 215.574 59.4461C215.355 58.9111 215.246 58.2744 215.246 57.5359V54.5518C215.246 53.8133 215.355 53.1765 215.574 52.6415C215.8 52.1065 216.101 51.6694 216.478 51.3303C216.855 50.9837 217.292 50.7312 217.789 50.573C218.294 50.4072 218.825 50.3243 219.383 50.3243H219.858V51.7486H219.451C219.059 51.7486 218.697 51.8013 218.366 51.9068C218.034 52.0123 217.744 52.1818 217.495 52.4154C217.254 52.6491 217.062 52.9505 216.919 53.3197C216.783 53.6814 216.716 54.1223 216.716 54.6422V57.4454C216.716 57.9654 216.783 58.41 216.919 58.7792C217.062 59.1409 217.254 59.4386 217.495 59.6722C217.744 59.9058 218.034 60.0754 218.366 60.1809C218.697 60.2864 219.059 60.3391 219.451 60.3391H219.858ZM225.072 50.6747L226.361 51.0817L222.981 61.4129L221.681 61.006L225.072 50.6747ZM239.366 50.6747L240.655 51.0817L237.275 61.4129L235.975 61.006L239.366 50.6747ZM3.13703 76.7633H1.78063V65.3243H3.13703V76.7633ZM6.83667 75.5426H12.3753V76.8311H6.83667V75.5426ZM17.4314 76.7633H16.075V65.3243H17.4314V76.7633ZM38.8728 76.7633H37.5164V65.3243H38.8728V76.7633ZM42.5725 75.5426H48.1111V76.8311H42.5725V75.5426ZM53.1672 76.7633H51.8108V65.3243H53.1672V76.7633ZM83.4174 76.006L82.1175 76.4129L78.7378 66.0817L80.0264 65.6747L83.4174 76.006ZM85.4555 75.5426H90.9941V76.8311H85.4555V75.5426ZM96.0502 76.7633H94.6938V65.3243H96.0502V76.7633ZM103.197 76.7633H101.841V65.3243H103.197V76.7633ZM106.897 75.5426H112.436V76.8311H106.897V75.5426ZM117.492 76.7633H116.135V65.3243H117.492V76.7633ZM131.786 76.7633H130.43V65.3243H131.786V76.7633ZM138.933 76.7633H137.577V65.3243H138.933V76.7633ZM142.633 75.5426H148.171V76.8311H142.633V75.5426ZM153.6 65.6747L154.889 66.0817L151.509 76.4129L150.209 76.006L153.6 65.6747ZM160.375 76.7633H159.018V65.3243H160.375V76.7633ZM174.669 76.7633H173.313V65.3243H174.669V76.7633ZM181.816 76.7633H180.46V65.3243H181.816V76.7633ZM185.516 75.5426H191.054V76.8311H185.516V75.5426ZM196.483 65.6747L197.772 66.0817L194.392 76.4129L193.092 76.006L196.483 65.6747ZM212.066 76.006L210.766 76.4129L207.387 66.0817L208.675 65.6747L212.066 76.006ZM214.104 75.5426H219.643V76.8311H214.104V75.5426ZM221.252 75.5426H226.79V76.8311H221.252V75.5426ZM228.399 75.5426H233.937V76.8311H228.399V75.5426ZM235.546 75.5426H241.085V76.8311H235.546V75.5426ZM242.885 75.3391C243.277 75.3391 243.639 75.2864 243.97 75.1809C244.302 75.0754 244.588 74.9058 244.829 74.6722C245.078 74.4386 245.27 74.1409 245.406 73.7792C245.549 73.41 245.621 72.9654 245.621 72.4454V69.6422C245.621 69.1223 245.549 68.6814 245.406 68.3197C245.27 67.9505 245.078 67.6491 244.829 67.4154C244.588 67.1818 244.302 67.0123 243.97 66.9068C243.639 66.8013 243.277 66.7486 242.885 66.7486H242.478V65.3243H242.953C243.511 65.3243 244.038 65.4072 244.536 65.573C245.04 65.7312 245.481 65.9837 245.858 66.3303C246.235 66.6694 246.532 67.1065 246.751 67.6415C246.977 68.1765 247.09 68.8133 247.09 69.5518V72.5359C247.09 73.2744 246.977 73.9111 246.751 74.4461C246.532 74.9812 246.235 75.4182 245.858 75.7573C245.481 76.104 245.04 76.3564 244.536 76.5146C244.038 76.6804 243.511 76.7633 242.953 76.7633H242.478V75.3391H242.885ZM117.492 91.7633H116.135V80.3243H117.492V91.7633ZM121.191 90.5426H126.73V91.8311H121.191V90.5426ZM131.786 91.7633H130.43V80.3243H131.786V91.7633ZM160.375 91.7633H159.018V80.3243H160.375V91.7633ZM164.074 90.5426H169.613V91.8311H164.074V90.5426ZM174.669 91.7633H173.313V80.3243H174.669V91.7633Z" fill="#999999"/>
</svg>
