<svg width="800" height="489" viewBox="0 0 800 489" fill="none" xmlns="http://www.w3.org/2000/svg">
<path d="M6.608 31.432C6.608 30.8907 6.79467 30.4333 7.168 30.06C7.56 29.668 8.02667 29.472 8.568 29.472C9.10933 29.472 9.56667 29.668 9.94 30.06C10.332 30.4333 10.528 30.8907 10.528 31.432C10.528 31.9733 10.332 32.44 9.94 32.832C9.56667 33.2053 9.10933 33.392 8.568 33.392C8.02667 33.392 7.56 33.2053 7.168 32.832C6.79467 32.44 6.608 31.9733 6.608 31.432ZM20.4205 20.176H32.1245V22.192H20.4205V20.176ZM20.4205 24.208H32.1245V26.224H20.4205V24.208ZM38.1251 20.176H49.8291V22.192H38.1251V20.176ZM38.1251 24.208H49.8291V26.224H38.1251V24.208ZM55.8296 20.176H67.5336V22.192H55.8296V20.176ZM55.8296 24.208H67.5336V26.224H55.8296V24.208ZM73.5341 20.176H85.2381V22.192H73.5341V20.176ZM73.5341 24.208H85.2381V26.224H73.5341V24.208ZM91.2387 20.176H102.943V22.192H91.2387V20.176ZM91.2387 24.208H102.943V26.224H91.2387V24.208ZM108.943 20.176H120.647V22.192H108.943V20.176ZM108.943 24.208H120.647V26.224H108.943V24.208ZM126.648 20.176H138.352V22.192H126.648V20.176ZM126.648 24.208H138.352V26.224H126.648V24.208ZM144.352 20.176H156.056V22.192H144.352V20.176ZM144.352 24.208H156.056V26.224H144.352V24.208ZM162.057 20.176H173.761V22.192H162.057V20.176ZM162.057 24.208H173.761V26.224H162.057V24.208ZM179.761 20.176H191.465V22.192H179.761V20.176ZM179.761 24.208H191.465V26.224H179.761V24.208ZM197.466 20.176H209.17V22.192H197.466V20.176ZM197.466 24.208H209.17V26.224H197.466V24.208ZM215.17 20.176H226.874V22.192H215.17V20.176ZM215.17 24.208H226.874V26.224H215.17V24.208ZM232.875 20.176H244.579V22.192H232.875V20.176ZM232.875 24.208H244.579V26.224H232.875V24.208ZM250.579 20.176H262.283V22.192H250.579V20.176ZM250.579 24.208H262.283V26.224H250.579V24.208ZM268.284 20.176H279.988V22.192H268.284V20.176ZM268.284 24.208H279.988V26.224H268.284V24.208ZM285.988 20.176H297.692V22.192H285.988V20.176ZM285.988 24.208H297.692V26.224H285.988V24.208ZM303.693 20.176H315.397V22.192H303.693V20.176ZM303.693 24.208H315.397V26.224H303.693V24.208ZM321.398 20.176H333.102V22.192H321.398V20.176ZM321.398 24.208H333.102V26.224H321.398V24.208ZM339.102 20.176H350.806V22.192H339.102V20.176ZM339.102 24.208H350.806V26.224H339.102V24.208ZM356.807 20.176H368.511V22.192H356.807V20.176ZM356.807 24.208H368.511V26.224H356.807V24.208ZM374.511 20.176H386.215V22.192H374.511V20.176ZM374.511 24.208H386.215V26.224H374.511V24.208ZM392.216 20.176H403.92V22.192H392.216V20.176ZM392.216 24.208H403.92V26.224H392.216V24.208ZM409.92 20.176H421.624V22.192H409.92V20.176ZM409.92 24.208H421.624V26.224H409.92V24.208ZM427.625 20.176H439.329V22.192H427.625V20.176ZM427.625 24.208H439.329V26.224H427.625V24.208ZM445.329 20.176H457.033V22.192H445.329V20.176ZM445.329 24.208H457.033V26.224H445.329V24.208ZM463.034 20.176H474.738V22.192H463.034V20.176ZM463.034 24.208H474.738V26.224H463.034V24.208ZM480.738 20.176H492.442V22.192H480.738V20.176ZM480.738 24.208H492.442V26.224H480.738V24.208ZM498.443 20.176H510.147V22.192H498.443V20.176ZM498.443 24.208H510.147V26.224H498.443V24.208ZM516.147 20.176H527.851V22.192H516.147V20.176ZM516.147 24.208H527.851V26.224H516.147V24.208ZM533.852 20.176H545.556V22.192H533.852V20.176ZM533.852 24.208H545.556V26.224H533.852V24.208ZM551.556 20.176H563.26V22.192H551.556V20.176ZM551.556 24.208H563.26V26.224H551.556V24.208ZM569.261 20.176H580.965V22.192H569.261V20.176ZM569.261 24.208H580.965V26.224H569.261V24.208ZM586.966 20.176H598.67V22.192H586.966V20.176ZM586.966 24.208H598.67V26.224H586.966V24.208ZM604.67 20.176H616.374V22.192H604.67V20.176ZM604.67 24.208H616.374V26.224H604.67V24.208ZM622.375 20.176H634.079V22.192H622.375V20.176ZM622.375 24.208H634.079V26.224H622.375V24.208ZM640.079 20.176H651.783V22.192H640.079V20.176ZM640.079 24.208H651.783V26.224H640.079V24.208ZM657.784 20.176H669.488V22.192H657.784V20.176ZM657.784 24.208H669.488V26.224H657.784V24.208ZM675.488 20.176H687.192V22.192H675.488V20.176ZM675.488 24.208H687.192V26.224H675.488V24.208ZM693.193 20.176H704.897V22.192H693.193V20.176ZM693.193 24.208H704.897V26.224H693.193V24.208ZM710.897 20.176H722.601V22.192H710.897V20.176ZM710.897 24.208H722.601V26.224H710.897V24.208ZM728.602 20.176H740.306V22.192H728.602V20.176ZM728.602 24.208H740.306V26.224H728.602V24.208ZM746.306 20.176H758.01V22.192H746.306V20.176ZM746.306 24.208H758.01V26.224H746.306V24.208ZM764.011 20.176H775.715V22.192H764.011V20.176ZM764.011 24.208H775.715V26.224H764.011V24.208ZM785.607 31.432C785.607 30.8907 785.794 30.4333 786.167 30.06C786.559 29.668 787.026 29.472 787.567 29.472C788.109 29.472 788.566 29.668 788.939 30.06C789.331 30.4333 789.527 30.8907 789.527 31.432C789.527 31.9733 789.331 32.44 788.939 32.832C788.566 33.2053 788.109 33.392 787.567 33.392C787.026 33.392 786.559 33.2053 786.167 32.832C785.794 32.44 785.607 31.9733 785.607 31.432Z" fill="#C7C7C7"/>
<rect x="354.271" y="93" width="91.4587" height="48.0744" stroke="#00FF00" stroke-width="2.40681"/>
<path d="M365.996 103.553V108.047H371.449H381.946H383.079V103.553H365.996Z" fill="#00FF00"/>
<path d="M365.996 115.018V129.103H371.449V119.519H381.946V115.018H371.449H365.996Z" fill="#00FF00"/>
<path d="M437.287 130.354H420.201V126.083H437.287V130.354Z" fill="#00FF00"/>
<path d="M398.828 121.811H403.099V126.083H398.828V121.811ZM403.099 117.54H407.371V121.811H403.099V117.54ZM407.371 113.268H411.642V117.54H407.371V113.268ZM403.099 108.997H407.371V113.268H403.099V108.997ZM398.828 104.725H403.099V108.997H398.828V104.725Z" fill="#00FF00"/>
<path d="M69.1365 220.019V185.342H90.2776V220.019H69.1365ZM89.8 220.019V202.681H110.941V220.019H89.8ZM110.464 220.019V202.681H131.605V220.019H110.464ZM151.791 220.019V185.342H172.932V220.019H151.791ZM188.297 220.019V215.684H190.955V220.019H188.297ZM177.735 220.019V215.684H180.376V220.019H177.735ZM183.016 213.957V209.622H185.657V213.957H183.016ZM172.454 213.957V209.622H175.078V213.957H172.454ZM188.297 207.879V203.544H190.955V207.879H188.297ZM177.735 207.879V203.544H180.376V207.879H177.735ZM183.016 201.817V197.482H185.657V201.817H183.016ZM172.454 201.817V197.482H175.078V201.817H172.454ZM188.297 195.739V191.404H190.955V195.739H188.297ZM177.735 195.739V191.404H180.376V195.739H177.735ZM183.016 189.677V185.342H185.657V189.677H183.016ZM172.454 189.677V185.342H175.078V189.677H172.454ZM193.118 220.019V185.342H214.259V220.019H193.118ZM234.445 220.019V185.342H255.586V220.019H234.445ZM275.772 220.019V185.342H296.913V220.019H275.772ZM312.279 220.019V215.684H314.936V220.019H312.279ZM301.716 220.019V215.684H304.357V220.019H301.716ZM306.998 213.957V209.622H309.638V213.957H306.998ZM296.435 213.957V209.622H299.059V213.957H296.435ZM312.279 207.879V203.544H314.936V207.879H312.279ZM301.716 207.879V203.544H304.357V207.879H301.716ZM306.998 201.817V197.482H309.638V201.817H306.998ZM296.435 201.817V197.482H299.059V201.817H296.435ZM312.279 195.739V191.404H314.936V195.739H312.279ZM301.716 195.739V191.404H304.357V195.739H301.716ZM306.998 189.677V185.342H309.638V189.677H306.998ZM296.435 189.677V185.342H299.059V189.677H296.435ZM332.942 220.019V215.684H335.599V220.019H332.942ZM322.38 220.019V215.684H325.02V220.019H322.38ZM327.661 213.957V209.622H330.302V213.957H327.661ZM317.099 213.957V209.622H319.723V213.957H317.099ZM332.942 207.879V203.544H335.599V207.879H332.942ZM322.38 207.879V203.544H325.02V207.879H322.38ZM327.661 201.817V197.482H330.302V201.817H327.661ZM317.099 201.817V197.482H319.723V201.817H317.099ZM332.942 195.739V191.404H335.599V195.739H332.942ZM322.38 195.739V191.404H325.02V195.739H322.38ZM327.661 189.677V185.342H330.302V189.677H327.661ZM317.099 189.677V185.342H319.723V189.677H317.099ZM358.426 220.019V185.342H379.567V220.019H358.426ZM379.089 202.681V185.342H400.231V202.681H379.089ZM399.753 220.019V202.681H420.894V220.019H399.753ZM482.407 202.681V185.342H503.548V202.681H482.407ZM503.071 220.019V185.342H524.212V220.019H503.071ZM544.398 220.019V185.342H565.539V220.019H544.398ZM565.061 202.681V185.342H586.202V202.681H565.061ZM585.725 220.019V185.342H606.866V220.019H585.725ZM627.052 202.681V185.342H648.193V202.681H627.052ZM647.715 220.019V185.342H668.856V220.019H647.715ZM689.042 220.019V185.342H710.183V220.019H689.042ZM709.706 202.681V185.342H730.847V202.681H709.706ZM69.1365 264.019V229.342H90.2776V264.019H69.1365ZM89.8 264.019V246.681H110.941V264.019H89.8ZM110.464 264.019V229.342H131.605V264.019H110.464ZM151.791 264.019V229.342H172.932V264.019H151.791ZM172.454 264.019V246.681H193.595V264.019H172.454ZM193.118 264.019V229.342H214.259V264.019H193.118ZM234.445 264.019V229.342H255.586V264.019H234.445ZM275.772 264.019V229.342H296.913V264.019H275.772ZM296.435 264.019V246.681H317.576V264.019H296.435ZM317.099 264.019V246.681H338.24V264.019H317.099ZM358.426 264.019V229.342H379.567V264.019H358.426ZM379.089 264.019V246.681H400.231V264.019H379.089ZM399.753 246.681V229.342H420.894V246.681H399.753ZM482.407 264.019V229.342H503.548V264.019H482.407ZM503.071 264.019V246.681H524.212V264.019H503.071ZM544.398 264.019V229.342H565.539V264.019H544.398ZM565.061 264.019V246.681H586.202V264.019H565.061ZM585.725 264.019V229.342H606.866V264.019H585.725ZM627.052 264.019V229.342H648.193V264.019H627.052ZM647.715 264.019V246.681H668.856V264.019H647.715ZM689.042 264.019V246.681H710.183V264.019H689.042ZM709.706 264.019V229.342H730.847V264.019H709.706Z" fill="#00FF00"/>
<path d="M109.146 314.656H112.956V326.085H116.765V314.656H120.575V326.085H124.385V329.894H120.575V333.704H116.765V329.894H109.146V314.656ZM144.059 326.085H132.63V322.275H144.059V326.085ZM152.333 314.656H167.571V318.466H156.142V322.275H163.761V326.085H152.333V314.656ZM163.761 326.085V329.894H167.571V326.085H163.761ZM163.761 333.704V329.894H152.333V333.704H163.761ZM191.798 333.704V318.466H195.607V322.275H203.226V318.466H207.036V333.704H203.226V326.085H195.607V333.704H191.798ZM195.607 314.656V318.466H203.226V314.656H195.607ZM215.19 333.704V314.656H226.619V318.466H219V322.275H226.619V326.085H219V333.704H215.19ZM226.619 318.466H230.428V322.275H226.619V318.466ZM238.674 333.704V314.656H250.102V318.466H242.483V322.275H250.102V326.085H242.483V333.704H238.674ZM250.102 318.466H253.912V322.275H250.102V318.466ZM246.293 326.085H250.102V329.894H246.293V326.085ZM250.102 329.894H253.912V333.704H250.102V329.894ZM262.158 333.704V314.656H265.967V333.704H262.158ZM278.045 329.894H285.664V333.704H274.235V314.656H278.045V329.894ZM293.938 329.894H297.747V333.704H293.938V329.894ZM290.128 333.704H293.938V337.513H290.128V333.704ZM321.905 333.704V326.085H325.715V329.894H337.143V333.704H321.905ZM333.334 318.466H337.143V322.275H333.334V318.466ZM333.334 318.466H321.905V314.656H333.334V318.466ZM325.715 322.275H333.334V326.085H325.715V322.275ZM356.817 318.466H349.198V314.656H356.817V318.466ZM349.198 329.894H345.389V318.466H349.198V329.894ZM356.817 333.704H349.198V329.894H356.817V333.704ZM360.627 329.894H356.817V318.466H360.627V329.894ZM368.873 333.704V326.085H372.682V329.894H384.111V333.704H368.873ZM380.301 318.466H384.111V322.275H380.301V318.466ZM380.301 318.466H368.873V314.656H380.301V318.466ZM372.682 322.275H380.301V326.085H372.682V322.275ZM392.356 314.656H407.594V318.466H396.166V322.275H403.785V326.085H392.356V314.656ZM403.785 326.085V329.894H407.594V326.085H403.785ZM403.785 333.704V329.894H392.356V333.704H403.785ZM443.159 322.275H439.349V314.656H443.159V322.275ZM439.349 326.085H435.54V322.275H439.349V326.085ZM435.54 333.704H431.73V326.085H435.54V333.704ZM478.751 333.704H471.132V329.894H478.751V333.704ZM471.132 322.275H467.323V318.466H471.132V322.275ZM478.751 318.466H471.132V314.656H478.751V318.466ZM482.561 329.894V318.466H478.751V322.275H471.132V326.085H478.751V329.894H482.561ZM506.788 333.704V318.466H510.597V322.275H518.216V318.466H522.026V333.704H518.216V326.085H510.597V333.704H506.788ZM510.597 314.656V318.466H518.216V314.656H510.597ZM530.18 333.704V314.656H533.99V333.704H530.18ZM545.418 333.704V314.656H549.228V333.704H545.418ZM541.609 318.466H545.418V322.275H541.609V318.466ZM537.799 322.275H541.609V326.085H537.799V322.275ZM533.99 318.466H537.799V322.275H533.99V318.466ZM584.795 326.085H573.366V322.275H584.795V326.085ZM624.197 314.656V322.275H620.388V318.466H608.959V314.656H624.197ZM616.578 322.275H620.388V326.085H616.578V322.275ZM616.578 333.704H612.768V326.085H616.578V333.704ZM648.333 333.704V314.656H659.761V318.466H652.142V322.275H659.761V326.085H652.142V333.704H648.333ZM659.761 318.466H663.571V322.275H659.761V318.466ZM671.816 333.704V314.656H675.626V333.704H671.816ZM687.054 333.704V314.656H690.864V333.704H687.054ZM683.245 318.466H687.054V322.275H683.245V318.466ZM679.435 322.275H683.245V326.085H679.435V322.275ZM675.626 318.466H679.435V322.275H675.626V318.466ZM117.791 374.085V381.704H113.981V362.656H117.791V370.275H121.6V374.085H117.791ZM121.6 366.466H125.41V370.275H121.6V366.466ZM125.41 362.656H129.219V366.466H125.41V362.656ZM121.6 374.085H125.41V377.894H121.6V374.085ZM125.41 377.894H129.219V381.704H125.41V377.894ZM148.894 366.466H141.275V362.656H148.894V366.466ZM141.275 377.894H137.465V366.466H141.275V377.894ZM148.894 381.704H141.275V377.894H148.894V381.704ZM152.703 377.894H148.894V366.466H152.703V377.894ZM160.949 381.704V362.656H172.377V366.466H164.758V370.275H172.377V374.085H164.758V381.704H160.949ZM172.377 366.466H176.187V370.275H172.377V366.466ZM168.568 374.085H172.377V377.894H168.568V374.085ZM172.377 377.894H176.187V381.704H172.377V377.894ZM184.433 381.704V362.656H188.242V381.704H184.433ZM199.671 381.704V362.656H203.48V381.704H199.671ZM195.861 366.466H199.671V370.275H195.861V366.466ZM192.052 370.275H195.861V374.085H192.052V370.275ZM188.242 366.466H192.052V370.275H188.242V366.466ZM211.82 381.704V366.466H215.63V370.275H223.249V366.466H227.058V381.704H223.249V374.085H215.63V381.704H211.82ZM215.63 362.656V366.466H223.249V362.656H215.63ZM235.213 381.704V362.656H239.022V381.704H235.213ZM250.451 381.704V362.656H254.26V381.704H250.451ZM246.641 374.085H250.451V377.894H246.641V374.085ZM242.832 370.275H246.641V374.085H242.832V370.275ZM239.022 366.466H242.832V370.275H239.022V366.466ZM277.747 366.466H266.318V362.656H277.747V366.466ZM266.318 377.894H262.509V366.466H266.318V377.894ZM273.937 381.704H266.318V377.894H273.937V381.704ZM273.937 374.085H270.128V370.275H277.747V377.894H273.937V374.085ZM286.084 381.704V366.466H289.894V370.275H297.513V366.466H301.322V381.704H297.513V374.085H289.894V381.704H286.084ZM289.894 362.656V366.466H297.513V362.656H289.894ZM313.286 377.894H320.905V381.704H309.476V362.656H313.286V377.894ZM329.27 381.704V366.466H333.08V370.275H340.699V366.466H344.508V381.704H340.699V374.085H333.08V381.704H329.27ZM333.08 362.656V366.466H340.699V362.656H333.08ZM383.791 370.275H379.981V366.466H383.791V370.275ZM379.981 366.466H372.362V362.656H379.981V366.466ZM383.791 377.894H379.981V374.085H383.791V377.894ZM372.362 377.894H368.553V366.466H372.362V377.894ZM379.981 381.704H372.362V377.894H379.981V381.704ZM395.846 377.894H403.465V381.704H392.036V362.656H395.846V377.894ZM423.167 362.656H426.977V377.894H423.167V362.656ZM423.167 381.704H415.548V377.894H423.167V381.704ZM411.739 362.656H415.548V377.894H411.739V362.656ZM450.461 366.466V370.275H446.651V366.466H450.461ZM450.461 374.085V377.894H446.651V374.085H450.461ZM446.651 366.466H439.032V370.275H446.651V374.085H439.032V377.894H446.651V381.704H435.223V362.656H446.651V366.466ZM458.706 377.894H462.516V381.704H458.706V377.894ZM454.897 381.704H458.706V385.513H454.897V381.704ZM501.912 366.466V370.275H498.102V366.466H501.912ZM501.912 374.085V377.894H498.102V374.085H501.912ZM498.102 366.466H490.483V370.275H498.102V374.085H490.483V377.894H498.102V381.704H486.674V362.656H498.102V366.466ZM521.586 366.466H513.967V370.275H521.586V374.085H513.967V377.894H521.586V381.704H510.158V362.656H521.586V366.466ZM529.86 381.704V362.656H533.67V381.704H529.86ZM545.098 381.704V362.656H548.908V381.704H545.098ZM541.289 374.085H545.098V377.894H541.289V374.085ZM537.479 370.275H541.289V374.085H537.479V370.275ZM533.67 366.466H537.479V370.275H533.67V366.466ZM572.394 366.466H560.966V362.656H572.394V366.466ZM560.966 377.894H557.156V366.466H560.966V377.894ZM568.585 381.704H560.966V377.894H568.585V381.704ZM568.585 374.085H564.775V370.275H572.394V377.894H568.585V374.085ZM580.732 381.704V366.466H584.541V370.275H592.16V366.466H595.97V381.704H592.16V374.085H584.541V381.704H580.732ZM584.541 362.656V366.466H592.16V362.656H584.541ZM607.933 377.894H615.552V381.704H604.124V362.656H607.933V377.894ZM635.255 362.656H639.064V377.894H635.255V362.656ZM635.255 381.704H627.636V377.894H635.255V381.704ZM623.826 362.656H627.636V377.894H623.826V362.656ZM647.31 381.704V362.656H658.739V366.466H651.12V370.275H658.739V374.085H651.12V381.704H647.31ZM658.739 366.466H662.548V370.275H658.739V366.466ZM654.929 374.085H658.739V377.894H654.929V374.085ZM658.739 377.894H662.548V381.704H658.739V377.894ZM682.222 362.656H686.032V377.894H682.222V362.656ZM682.222 381.704H674.603V377.894H682.222V381.704ZM670.794 362.656H674.603V377.894H670.794V362.656Z" fill="#00FF00"/>
<path d="M6.608 475.432C6.608 474.891 6.79467 474.433 7.168 474.06C7.56 473.668 8.02667 473.472 8.568 473.472C9.10933 473.472 9.56667 473.668 9.94 474.06C10.332 474.433 10.528 474.891 10.528 475.432C10.528 475.973 10.332 476.44 9.94 476.832C9.56667 477.205 9.10933 477.392 8.568 477.392C8.02667 477.392 7.56 477.205 7.168 476.832C6.79467 476.44 6.608 475.973 6.608 475.432ZM20.4205 464.176H32.1245V466.192H20.4205V464.176ZM20.4205 468.208H32.1245V470.224H20.4205V468.208ZM38.1251 464.176H49.8291V466.192H38.1251V464.176ZM38.1251 468.208H49.8291V470.224H38.1251V468.208ZM55.8296 464.176H67.5336V466.192H55.8296V464.176ZM55.8296 468.208H67.5336V470.224H55.8296V468.208ZM73.5341 464.176H85.2381V466.192H73.5341V464.176ZM73.5341 468.208H85.2381V470.224H73.5341V468.208ZM91.2387 464.176H102.943V466.192H91.2387V464.176ZM91.2387 468.208H102.943V470.224H91.2387V468.208ZM108.943 464.176H120.647V466.192H108.943V464.176ZM108.943 468.208H120.647V470.224H108.943V468.208ZM126.648 464.176H138.352V466.192H126.648V464.176ZM126.648 468.208H138.352V470.224H126.648V468.208ZM144.352 464.176H156.056V466.192H144.352V464.176ZM144.352 468.208H156.056V470.224H144.352V468.208ZM162.057 464.176H173.761V466.192H162.057V464.176ZM162.057 468.208H173.761V470.224H162.057V468.208ZM179.761 464.176H191.465V466.192H179.761V464.176ZM179.761 468.208H191.465V470.224H179.761V468.208ZM197.466 464.176H209.17V466.192H197.466V464.176ZM197.466 468.208H209.17V470.224H197.466V468.208ZM215.17 464.176H226.874V466.192H215.17V464.176ZM215.17 468.208H226.874V470.224H215.17V468.208ZM232.875 464.176H244.579V466.192H232.875V464.176ZM232.875 468.208H244.579V470.224H232.875V468.208ZM250.579 464.176H262.283V466.192H250.579V464.176ZM250.579 468.208H262.283V470.224H250.579V468.208ZM268.284 464.176H279.988V466.192H268.284V464.176ZM268.284 468.208H279.988V470.224H268.284V468.208ZM285.988 464.176H297.692V466.192H285.988V464.176ZM285.988 468.208H297.692V470.224H285.988V468.208ZM303.693 464.176H315.397V466.192H303.693V464.176ZM303.693 468.208H315.397V470.224H303.693V468.208ZM321.398 464.176H333.102V466.192H321.398V464.176ZM321.398 468.208H333.102V470.224H321.398V468.208ZM339.102 464.176H350.806V466.192H339.102V464.176ZM339.102 468.208H350.806V470.224H339.102V468.208ZM356.807 464.176H368.511V466.192H356.807V464.176ZM356.807 468.208H368.511V470.224H356.807V468.208ZM374.511 464.176H386.215V466.192H374.511V464.176ZM374.511 468.208H386.215V470.224H374.511V468.208ZM392.216 464.176H403.92V466.192H392.216V464.176ZM392.216 468.208H403.92V470.224H392.216V468.208ZM409.92 464.176H421.624V466.192H409.92V464.176ZM409.92 468.208H421.624V470.224H409.92V468.208ZM427.625 464.176H439.329V466.192H427.625V464.176ZM427.625 468.208H439.329V470.224H427.625V468.208ZM445.329 464.176H457.033V466.192H445.329V464.176ZM445.329 468.208H457.033V470.224H445.329V468.208ZM463.034 464.176H474.738V466.192H463.034V464.176ZM463.034 468.208H474.738V470.224H463.034V468.208ZM480.738 464.176H492.442V466.192H480.738V464.176ZM480.738 468.208H492.442V470.224H480.738V468.208ZM498.443 464.176H510.147V466.192H498.443V464.176ZM498.443 468.208H510.147V470.224H498.443V468.208ZM516.147 464.176H527.851V466.192H516.147V464.176ZM516.147 468.208H527.851V470.224H516.147V468.208ZM533.852 464.176H545.556V466.192H533.852V464.176ZM533.852 468.208H545.556V470.224H533.852V468.208ZM551.556 464.176H563.26V466.192H551.556V464.176ZM551.556 468.208H563.26V470.224H551.556V468.208ZM569.261 464.176H580.965V466.192H569.261V464.176ZM569.261 468.208H580.965V470.224H569.261V468.208ZM586.966 464.176H598.67V466.192H586.966V464.176ZM586.966 468.208H598.67V470.224H586.966V468.208ZM604.67 464.176H616.374V466.192H604.67V464.176ZM604.67 468.208H616.374V470.224H604.67V468.208ZM622.375 464.176H634.079V466.192H622.375V464.176ZM622.375 468.208H634.079V470.224H622.375V468.208ZM640.079 464.176H651.783V466.192H640.079V464.176ZM640.079 468.208H651.783V470.224H640.079V468.208ZM657.784 464.176H669.488V466.192H657.784V464.176ZM657.784 468.208H669.488V470.224H657.784V468.208ZM675.488 464.176H687.192V466.192H675.488V464.176ZM675.488 468.208H687.192V470.224H675.488V468.208ZM693.193 464.176H704.897V466.192H693.193V464.176ZM693.193 468.208H704.897V470.224H693.193V468.208ZM710.897 464.176H722.601V466.192H710.897V464.176ZM710.897 468.208H722.601V470.224H710.897V468.208ZM728.602 464.176H740.306V466.192H728.602V464.176ZM728.602 468.208H740.306V470.224H728.602V468.208ZM746.306 464.176H758.01V466.192H746.306V464.176ZM746.306 468.208H758.01V470.224H746.306V468.208ZM764.011 464.176H775.715V466.192H764.011V464.176ZM764.011 468.208H775.715V470.224H764.011V468.208ZM785.607 475.432C785.607 474.891 785.794 474.433 786.167 474.06C786.559 473.668 787.026 473.472 787.567 473.472C788.109 473.472 788.566 473.668 788.939 474.06C789.331 474.433 789.527 474.891 789.527 475.432C789.527 475.973 789.331 476.44 788.939 476.832C788.566 477.205 788.109 477.392 787.567 477.392C787.026 477.392 786.559 477.205 786.167 476.832C785.794 476.44 785.607 475.973 785.607 475.432Z" fill="#C7C7C7"/>
<path d="M6.84 72.12H5.4V51.88H6.84V72.12ZM19.4861 72.12H18.0461V51.88H19.4861V72.12Z" fill="#C7C7C7"/>
<path d="M6.84 104.12H5.4V83.88H6.84V104.12ZM19.4861 104.12H18.0461V83.88H19.4861V104.12Z" fill="#C7C7C7"/>
<path d="M6.84 136.12H5.4V115.88H6.84V136.12ZM19.4861 136.12H18.0461V115.88H19.4861V136.12Z" fill="#C7C7C7"/>
<path d="M6.84 168.12H5.4V147.88H6.84V168.12ZM19.4861 168.12H18.0461V147.88H19.4861V168.12Z" fill="#C7C7C7"/>
<path d="M6.84 200.12H5.4V179.88H6.84V200.12ZM19.4861 200.12H18.0461V179.88H19.4861V200.12Z" fill="#C7C7C7"/>
<path d="M6.84 232.12H5.4V211.88H6.84V232.12ZM19.4861 232.12H18.0461V211.88H19.4861V232.12Z" fill="#C7C7C7"/>
<path d="M6.84 264.12H5.4V243.88H6.84V264.12ZM19.4861 264.12H18.0461V243.88H19.4861V264.12Z" fill="#C7C7C7"/>
<path d="M6.84 296.12H5.4V275.88H6.84V296.12ZM19.4861 296.12H18.0461V275.88H19.4861V296.12Z" fill="#C7C7C7"/>
<path d="M6.84 328.12H5.4V307.88H6.84V328.12ZM19.4861 328.12H18.0461V307.88H19.4861V328.12Z" fill="#C7C7C7"/>
<path d="M6.84 360.12H5.4V339.88H6.84V360.12ZM19.4861 360.12H18.0461V339.88H19.4861V360.12Z" fill="#C7C7C7"/>
<path d="M6.84 392.12H5.4V371.88H6.84V392.12ZM19.4861 392.12H18.0461V371.88H19.4861V392.12Z" fill="#C7C7C7"/>
<path d="M6.84 424.12H5.4V403.88H6.84V424.12ZM19.4861 424.12H18.0461V403.88H19.4861V424.12Z" fill="#C7C7C7"/>
<path d="M6.84 456.12H5.4V435.88H6.84V456.12ZM19.4861 456.12H18.0461V435.88H19.4861V456.12Z" fill="#C7C7C7"/>
<path d="M781.84 72.12H780.4V51.88H781.84V72.12ZM794.486 72.12H793.046V51.88H794.486V72.12Z" fill="#C7C7C7"/>
<path d="M781.84 104.12H780.4V83.88H781.84V104.12ZM794.486 104.12H793.046V83.88H794.486V104.12Z" fill="#C7C7C7"/>
<path d="M781.84 136.12H780.4V115.88H781.84V136.12ZM794.486 136.12H793.046V115.88H794.486V136.12Z" fill="#C7C7C7"/>
<path d="M781.84 168.12H780.4V147.88H781.84V168.12ZM794.486 168.12H793.046V147.88H794.486V168.12Z" fill="#C7C7C7"/>
<path d="M781.84 200.12H780.4V179.88H781.84V200.12ZM794.486 200.12H793.046V179.88H794.486V200.12Z" fill="#C7C7C7"/>
<path d="M781.84 232.12H780.4V211.88H781.84V232.12ZM794.486 232.12H793.046V211.88H794.486V232.12Z" fill="#C7C7C7"/>
<path d="M781.84 264.12H780.4V243.88H781.84V264.12ZM794.486 264.12H793.046V243.88H794.486V264.12Z" fill="#C7C7C7"/>
<path d="M781.84 296.12H780.4V275.88H781.84V296.12ZM794.486 296.12H793.046V275.88H794.486V296.12Z" fill="#C7C7C7"/>
<path d="M781.84 328.12H780.4V307.88H781.84V328.12ZM794.486 328.12H793.046V307.88H794.486V328.12Z" fill="#C7C7C7"/>
<path d="M781.84 360.12H780.4V339.88H781.84V360.12ZM794.486 360.12H793.046V339.88H794.486V360.12Z" fill="#C7C7C7"/>
<path d="M781.84 392.12H780.4V371.88H781.84V392.12ZM794.486 392.12H793.046V371.88H794.486V392.12Z" fill="#C7C7C7"/>
<path d="M781.84 424.12H780.4V403.88H781.84V424.12ZM794.486 424.12H793.046V403.88H794.486V424.12Z" fill="#C7C7C7"/>
<path d="M781.84 456.12H780.4V435.88H781.84V456.12ZM794.486 456.12H793.046V435.88H794.486V456.12Z" fill="#C7C7C7"/>
</svg>
