<svg width="18" height="18" viewBox="0 0 18 18" fill="none" xmlns="http://www.w3.org/2000/svg">
<g id="partners/calendar">
<path id="Icon" d="M5.25 2.25V4.5M12.75 2.25V4.5M5.32501 15C5.67247 13.2883 7.18578 12 9 12C10.8142 12 12.3275 13.2883 12.675 15M4.65 15.75H13.35C14.1901 15.75 14.6101 15.75 14.931 15.5865C15.2132 15.4427 15.4427 15.2132 15.5865 14.931C15.75 14.6101 15.75 14.1901 15.75 13.35V6.15C15.75 5.30992 15.75 4.88988 15.5865 4.56901C15.4427 4.28677 15.2132 4.0573 14.931 3.91349C14.6101 3.75 14.1901 3.75 13.35 3.75H4.65C3.80992 3.75 3.38988 3.75 3.06901 3.91349C2.78677 4.0573 2.5573 4.28677 2.41349 4.56901C2.25 4.88988 2.25 5.30992 2.25 6.15V13.35C2.25 14.1901 2.25 14.6101 2.41349 14.931C2.5573 15.2132 2.78677 15.4427 3.06901 15.5865C3.38988 15.75 3.80992 15.75 4.65 15.75ZM10.5 8.25C10.5 9.07843 9.82843 9.75 9 9.75C8.17157 9.75 7.5 9.07843 7.5 8.25C7.5 7.42157 8.17157 6.75 9 6.75C9.82843 6.75 10.5 7.42157 10.5 8.25Z" stroke="#525252" stroke-linecap="round" stroke-linejoin="round"/>
</g>
</svg>
