<svg width="117" height="117" viewBox="0 0 117 117" fill="none" xmlns="http://www.w3.org/2000/svg">
<g clip-path="url(#clip0_247_166)">
<path d="M93.4394 0H23.5606C10.5485 0 0 10.5485 0 23.5606V93.4394C0 106.452 10.5485 117 23.5606 117H93.4394C106.452 117 117 106.452 117 93.4394V23.5606C117 10.5485 106.452 0 93.4394 0Z" fill="#004880"/>
<path d="M38.2321 26.0237L35.3406 36.5725H46.2641H50.655H60.2399L50.9763 70.3606L41.0701 77.054L36.4651 72.3954L43.1584 47.9244H32.2348L24.7383 75.394L39.6243 90.762L60.1328 76.9469L74.055 26.0237H38.2321Z" fill="#E7E5F9"/>
<path d="M92.2088 80.4276H64.418V90.9763H92.2088V80.4276Z" fill="#E7E5F9"/>
</g>
<defs>
<clipPath id="clip0_247_166">
<rect width="117" height="117" fill="white"/>
</clipPath>
</defs>
</svg>
