<svg width="26" height="26" viewBox="0 0 26 26" fill="none" xmlns="http://www.w3.org/2000/svg">
<path fill-rule="evenodd" clip-rule="evenodd" d="M9.9035 9.99647H9.57894H5.35965H3.25V8.25195H9.9035V9.99647ZM5.35965 14.0852V16.4839H9.9576V18.2284H3.25V12.3407H5.35965H9.57895V14.0852H5.35965Z" fill="white"/>
<g clip-path="url(#clip0_6355_25030)">
<path d="M18.9318 3.45312H7.22177C5.11236 3.45312 3.40234 5.1765 3.40234 7.30238V19.1039C3.40234 21.2298 5.11236 22.9531 7.22177 22.9531H18.9318C21.0412 22.9531 22.7512 21.2298 22.7512 19.1039V7.30238C22.7512 5.1765 21.0412 3.45312 18.9318 3.45312Z" fill="#1C2925"/>
<path d="M13.9444 9.76138C13.9444 8.79907 13.1718 8.01172 12.2083 8.01172H7.07812V9.76138H12.1996V16.6463H8.81423V11.7298H7.07812V16.6551C7.07812 17.6174 7.85069 18.4047 8.81423 18.4047H17.3298C18.2847 18.4047 19.0659 17.6261 19.0659 16.6551V11.511C19.0659 10.5487 18.2934 9.76138 17.3298 9.76138H13.9357H13.9444ZM17.3298 16.6551H13.9444V11.511H17.3298V16.6551Z" fill="#FFDE32"/>
</g>
<path d="M20.7647 0H5.23579C2.34414 0 0 2.3441 0 5.2357V20.7643C0 23.6559 2.34414 26 5.23579 26H20.7647C23.6563 26 26.0004 23.6559 26.0004 20.7643V5.2357C26.0004 2.3441 23.6563 0 20.7647 0Z" fill="url(#paint0_radial_6355_25030)"/>
<path d="M20.9802 10.8824C19.942 9.38932 18.1923 8.52615 16.3726 8.6428C15.5911 7.2314 14.1447 6.29825 12.4533 6.19327C11.2752 6.12328 10.0854 6.53153 9.1639 7.32472C8.53401 7.87294 8.07909 8.50282 7.79914 9.21435C7.63583 9.63427 7.26257 9.90255 6.86597 9.90255H4.07812V12.2354H6.86597C8.23073 12.2354 9.45551 11.3839 9.96876 10.0659C10.1087 9.70426 10.342 9.38932 10.692 9.08604C11.1469 8.68945 11.7418 8.47949 12.3017 8.51449C13.1415 8.57281 13.7364 8.95774 14.1097 9.43598C14.5063 9.87923 14.7279 10.5674 14.8562 11.2556C15.6028 11.0457 16.4193 10.8707 17.2008 10.999C17.8424 11.104 18.4373 11.4423 18.8689 11.9438C18.9389 12.0255 19.0088 12.1071 19.0672 12.2004C19.6271 13.0053 19.732 13.9968 19.3588 14.9766C19.0205 15.8864 17.7724 16.7146 16.7342 16.7146H8.61566C7.50752 16.7146 6.59768 15.8864 6.45771 14.8249H4.12478C4.27642 17.1812 6.22442 19.0475 8.61566 19.0475H16.7459C18.7522 19.0475 20.8635 17.6244 21.5517 15.8048C22.1933 14.1017 21.9833 12.3054 20.9918 10.8707L20.9802 10.8824Z" fill="#FFFAE9"/>
<defs>
<radialGradient id="paint0_radial_6355_25030" cx="0" cy="0" r="1" gradientUnits="userSpaceOnUse" gradientTransform="translate(-6.33186 -12.8857) rotate(54.3345) scale(46.4879 46.4881)">
<stop stop-color="#40D1FF"/>
<stop offset="1" stop-color="#0097FF"/>
</radialGradient>
<clipPath id="clip0_6355_25030">
<rect width="19.3489" height="19.5" fill="white" transform="translate(3.40234 3.45312)"/>
</clipPath>
</defs>
</svg>
