<svg width="40" height="40" viewBox="0 0 40 40" fill="none" xmlns="http://www.w3.org/2000/svg">
<path d="M40 20C40 31.0457 31.0457 40 20 40C8.95431 40 0 31.0457 0 20C0 8.95431 8.95431 0 20 0C31.0457 0 40 8.95431 40 20Z" fill="#F8F8F8"/>
<path d="M29 20C29 24.9706 24.9706 29 20 29M29 20C29 15.0294 24.9706 11 20 11M29 20C29 21.6569 24.9706 23 20 23C15.0294 23 11 21.6569 11 20M29 20C29 18.3431 24.9706 17 20 17C15.0294 17 11 18.3431 11 20M20 29C15.0294 29 11 24.9706 11 20M20 29C18.3431 29 17 24.9706 17 20C17 15.0294 18.3431 11 20 11M20 29C21.6569 29 23 24.9706 23 20C23 15.0294 21.6569 11 20 11M11 20C11 15.0294 15.0294 11 20 11" stroke="#383838" stroke-width="1.2" stroke-linecap="round" stroke-linejoin="round"/>
</svg>
