<svg width="14" height="16" viewBox="0 0 14 16" fill="none" xmlns="http://www.w3.org/2000/svg">
<g id="Group">
<path id="Vector" d="M5.05039 1.25H1.75039C1.41902 1.25 1.15039 1.51863 1.15039 1.85V7.85C1.15039 8.18137 1.41902 8.45 1.75039 8.45H5.05039C5.38176 8.45 5.65039 8.18137 5.65039 7.85V1.85C5.65039 1.51863 5.38176 1.25 5.05039 1.25Z" stroke="#525252" stroke-linecap="round" stroke-linejoin="round"/>
<path id="Vector_2" d="M5.05039 11.1504H1.75039C1.41902 11.1504 1.15039 11.419 1.15039 11.7504V14.1504C1.15039 14.4818 1.41902 14.7504 1.75039 14.7504H5.05039C5.38176 14.7504 5.65039 14.4818 5.65039 14.1504V11.7504C5.65039 11.419 5.38176 11.1504 5.05039 11.1504Z" stroke="#525252" stroke-linecap="round" stroke-linejoin="round"/>
<path id="Vector_3" d="M12.2496 1.25H8.94961C8.61824 1.25 8.34961 1.51863 8.34961 1.85V5.15C8.34961 5.48137 8.61824 5.75 8.94961 5.75H12.2496C12.581 5.75 12.8496 5.48137 12.8496 5.15V1.85C12.8496 1.51863 12.581 1.25 12.2496 1.25Z" stroke="#525252" stroke-linecap="round" stroke-linejoin="round"/>
<path id="Vector_4" d="M12.2496 8.44922H8.94961C8.61824 8.44922 8.34961 8.71785 8.34961 9.04922V14.1492C8.34961 14.4806 8.61824 14.7492 8.94961 14.7492H12.2496C12.581 14.7492 12.8496 14.4806 12.8496 14.1492V9.04922C12.8496 8.71785 12.581 8.44922 12.2496 8.44922Z" stroke="#525252" stroke-linecap="round" stroke-linejoin="round"/>
</g>
</svg>
