<svg width="16" height="15" viewBox="0 0 16 15" fill="none" xmlns="http://www.w3.org/2000/svg">
<g id="Group">
<path id="Vector" d="M14.2817 1H1.71829C1.04663 1 0.5 1.54648 0.5 2.21829V10.4565C0.5 10.6364 0.646157 10.7826 0.826085 10.7826H15.1738C15.3538 10.7826 15.4999 10.6364 15.4999 10.4565V2.21829C15.4999 1.54663 14.9534 1 14.2816 1H14.2817ZM14.8478 10.1304H1.15225V2.21826C1.15225 1.90585 1.40656 1.65213 1.71837 1.65213H14.2818C14.5942 1.65213 14.8479 1.90587 14.8479 2.21826L14.8478 10.1304Z" fill="#525252" stroke="#525252" stroke-width="0.2"/>
<path id="Vector_2" d="M15.1738 12.0859H0.826085C0.646157 12.0859 0.5 12.2321 0.5 12.412V12.9911C0.5 13.9302 1.26442 14.6946 2.20276 14.6946H13.7972C14.7358 14.6946 15.5 13.9302 15.5 12.9911V12.412C15.5 12.2321 15.3538 12.0859 15.1739 12.0859H15.1738ZM14.8478 12.9911C14.8478 13.5709 14.3763 14.0424 13.7972 14.0424H2.20269C1.62285 14.0424 1.1521 13.5709 1.1521 12.9911V12.7381H14.8477L14.8478 12.9911Z" fill="#525252" stroke="#525252" stroke-width="0.2"/>
<path id="Vector_3" d="M10.2825 5.24015C10.2825 5.06022 10.1364 4.91406 9.95643 4.91406H7.99991C7.81999 4.91406 7.67383 5.06022 7.67383 5.24015V7.19666C7.67383 7.37659 7.81999 7.52275 7.99991 7.52275C8.17984 7.52275 8.326 7.37659 8.326 7.19666V5.56623H9.95643C10.1364 5.56623 10.2825 5.42008 10.2825 5.24015Z" fill="#525252" stroke="#525252" stroke-width="0.2"/>
<path id="Vector_4" d="M8.32617 5.89176C8.32617 5.97518 8.3582 6.05874 8.42138 6.12264L9.72572 7.42698C9.78962 7.49089 9.87304 7.52219 9.9566 7.52219C10.04 7.52219 10.1236 7.49016 10.1875 7.42698C10.3147 7.29975 10.3147 7.09304 10.1875 6.96595L8.88314 5.66161C8.81923 5.59771 8.73582 5.56641 8.65226 5.56641C8.56884 5.56641 8.48528 5.59843 8.42138 5.66161C8.35747 5.72494 8.32617 5.80893 8.32617 5.89249V5.89176Z" fill="#525252" stroke="#525252" stroke-width="0.2"/>
</g>
</svg>
