<svg width="15" height="16" viewBox="0 0 15 16" fill="none" xmlns="http://www.w3.org/2000/svg">
<path id="Icon" d="M12.9444 1V4.11111M11.3889 2.55556H14.5M12.9444 11.8889V15M11.3889 13.4444H14.5M5.94444 2.55556L4.80112 5.4545C4.65496 5.82508 4.58189 6.01037 4.46999 6.16661C4.3708 6.3051 4.24954 6.42636 4.11105 6.52554C3.95481 6.63744 3.76952 6.71052 3.39894 6.85667L0.5 8L3.39894 9.14333C3.76952 9.28948 3.95481 9.36256 4.11105 9.47446C4.24954 9.57364 4.3708 9.6949 4.46999 9.83339C4.58189 9.98963 4.65496 10.1749 4.80112 10.5455L5.94444 13.4444L7.08777 10.5455C7.23393 10.1749 7.307 9.98963 7.4189 9.83339C7.51808 9.6949 7.63934 9.57364 7.77784 9.47446C7.93408 9.36256 8.11937 9.28948 8.48994 9.14333L11.3889 8L8.48995 6.85667C8.11937 6.71052 7.93408 6.63744 7.77784 6.52554C7.63934 6.42636 7.51808 6.3051 7.4189 6.16661C7.307 6.01037 7.23393 5.82508 7.08777 5.4545L5.94444 2.55556Z" stroke="#525252" stroke-linecap="round" stroke-linejoin="round"/>
</svg>
