<svg width="41" height="40" viewBox="0 0 41 40" fill="none" xmlns="http://www.w3.org/2000/svg">
<path d="M40.666 20C40.666 31.0457 31.7117 40 20.666 40C9.62032 40 0.666016 31.0457 0.666016 20C0.666016 8.95431 9.62032 0 20.666 0C31.7117 0 40.666 8.95431 40.666 20Z" fill="#F8F8F8"/>
<path d="M23.05 14C24.0268 14.1906 24.9244 14.6683 25.6281 15.3719C26.3318 16.0756 26.8095 16.9733 27 17.95M23.05 10C25.0793 10.2254 26.9716 11.1342 28.4163 12.577C29.8609 14.0198 30.7721 15.911 31 17.94M27.5 29C18.9396 29 12 22.0604 12 13.5C12 13.1138 12.0141 12.7309 12.0419 12.3517C12.0738 11.9166 12.0897 11.6991 12.2037 11.501C12.2981 11.337 12.4655 11.1815 12.636 11.0993C12.8418 11 13.0819 11 13.562 11H16.3793C16.7831 11 16.985 11 17.158 11.0665C17.3109 11.1251 17.447 11.2205 17.5544 11.3441C17.676 11.484 17.745 11.6738 17.883 12.0532L19.0491 15.26C19.2096 15.7015 19.2899 15.9223 19.2763 16.1317C19.2643 16.3164 19.2012 16.4941 19.0942 16.6451C18.9729 16.8163 18.7715 16.9371 18.3686 17.1788L17 18C18.2019 20.6489 20.3501 22.7999 23 24L23.8212 22.6314C24.0629 22.2285 24.1837 22.0271 24.3549 21.9058C24.5059 21.7988 24.6836 21.7357 24.8683 21.7237C25.0777 21.7101 25.2985 21.7904 25.74 21.9509L28.9468 23.117C29.3262 23.255 29.516 23.324 29.6559 23.4456C29.7795 23.553 29.8749 23.6891 29.9335 23.842C30 24.015 30 24.2169 30 24.6207V27.438C30 27.9181 30 28.1582 29.9007 28.364C29.8185 28.5345 29.663 28.7019 29.499 28.7963C29.3009 28.9103 29.0834 28.9262 28.6483 28.9581C28.2691 28.9859 27.8862 29 27.5 29Z" stroke="#171717" stroke-width="1.2" stroke-linecap="round" stroke-linejoin="round"/>
</svg>
