<svg width="23" height="24" viewBox="0 0 23 24" fill="none" xmlns="http://www.w3.org/2000/svg">
<path d="M21 12C21 13.8789 20.4428 15.7156 19.399 17.2779C18.3551 18.8402 16.8714 20.0578 15.1355 20.7769C13.3996 21.4959 11.4895 21.684 9.64665 21.3175C7.80383 20.9509 6.1111 20.0461 4.7825 18.7175C3.4539 17.3889 2.54911 15.6962 2.18254 13.8534C1.81598 12.0106 2.00411 10.1004 2.72314 8.36452C3.44217 6.62863 4.6598 5.14493 6.22206 4.10105C7.78433 3.05717 9.62105 2.5 11.5 2.5" stroke="#EDEDED" stroke-width="3.04"/>
<path d="M11.5 2.5C13.5062 2.5 15.4609 3.13512 17.084 4.31434C18.707 5.49355 19.9151 7.15633 20.535 9.06434C21.155 10.9724 21.155 13.0276 20.535 14.9357C19.9151 16.8437 18.707 18.5064 17.084 19.6857C15.4609 20.8649 13.5062 21.5 11.5 21.5C9.4938 21.5 7.53909 20.8649 5.91604 19.6857C4.29299 18.5064 3.08491 16.8437 2.46496 14.9357C1.84501 13.0276 1.84501 10.9723 2.46496 9.06434" stroke="#525252" stroke-width="3.04" stroke-linecap="round"/>
<path d="M7.62109 14.1328V12.873L11.3242 7.01953H12.3672V8.8125H11.7285L9.23242 12.7617V12.832H14.4121V14.1328H7.62109ZM11.7754 15.75V13.752L11.7988 13.1836V7.01953H13.293V15.75H11.7754Z" fill="#525252"/>
</svg>
