<svg width="23" height="24" viewBox="0 0 23 24" fill="none" xmlns="http://www.w3.org/2000/svg">
<path d="M21 12C21 13.8789 20.4428 15.7156 19.399 17.2779C18.3551 18.8402 16.8714 20.0578 15.1355 20.7769C13.3996 21.4959 11.4895 21.684 9.64665 21.3175C7.80383 20.9509 6.1111 20.0461 4.7825 18.7175C3.4539 17.3889 2.54911 15.6962 2.18254 13.8534C1.81598 12.0106 2.00411 10.1004 2.72314 8.36452C3.44217 6.62863 4.6598 5.14493 6.22206 4.10105C7.78433 3.05717 9.62105 2.5 11.5 2.5" stroke="#EDEDED" stroke-width="3.04"/>
<path d="M11.5 2.5C12.9992 2.5 14.4771 2.85482 15.8129 3.53544C17.1487 4.21606 18.3045 5.20316 19.1857 6.41604C20.0669 7.62892 20.6485 9.03313 20.883 10.5139C21.1176 11.9946 20.9983 13.5098 20.535 14.9357C20.0718 16.3615 19.2776 17.6574 18.2175 18.7175C17.1574 19.7776 15.8615 20.5718 14.4357 21.035C13.0098 21.4983 11.4946 21.6176 10.0139 21.383C8.53313 21.1485 7.12892 20.5669 5.91604 19.6857" stroke="#525252" stroke-width="3.04" stroke-linecap="round"/>
<path d="M11.9082 15.8672C11.2949 15.8672 10.75 15.7637 10.2734 15.5566C9.79688 15.3457 9.41992 15.0527 9.14258 14.6777C8.86914 14.3027 8.72656 13.8691 8.71484 13.377H10.3027C10.3184 13.6152 10.3965 13.8223 10.5371 13.998C10.6816 14.1699 10.8711 14.3047 11.1055 14.4023C11.3438 14.4961 11.6094 14.543 11.9023 14.543C12.2148 14.543 12.4902 14.4883 12.7285 14.3789C12.9707 14.2656 13.1602 14.1133 13.2969 13.9219C13.4336 13.7266 13.502 13.502 13.502 13.248C13.502 12.9824 13.4316 12.748 13.291 12.5449C13.1543 12.3418 12.9551 12.1836 12.6934 12.0703C12.4316 11.957 12.1172 11.9004 11.75 11.9004H10.9707V10.6816H11.75C12.0508 10.6816 12.3145 10.6289 12.541 10.5234C12.7715 10.418 12.9512 10.2715 13.0801 10.084C13.209 9.89258 13.2734 9.66992 13.2734 9.41602C13.2734 9.16992 13.2168 8.95508 13.1035 8.77148C12.9941 8.58789 12.8379 8.44531 12.6348 8.34375C12.4355 8.24219 12.1992 8.19141 11.9258 8.19141C11.6562 8.19141 11.4082 8.24023 11.1816 8.33789C10.9551 8.43164 10.7715 8.56641 10.6309 8.74219C10.4902 8.91797 10.418 9.12891 10.4141 9.375H8.89062C8.89844 8.88672 9.03711 8.45703 9.30664 8.08594C9.58008 7.71484 9.94531 7.42578 10.4023 7.21875C10.8594 7.00781 11.3711 6.90234 11.9375 6.90234C12.5195 6.90234 13.0254 7.01172 13.4551 7.23047C13.8848 7.44531 14.2168 7.73633 14.4512 8.10352C14.6895 8.4707 14.8086 8.875 14.8086 9.31641C14.8086 9.80859 14.6641 10.2207 14.375 10.5527C14.0859 10.8848 13.7051 11.1035 13.2324 11.209V11.2734C13.6426 11.332 13.9863 11.4551 14.2637 11.6426C14.5449 11.8262 14.7578 12.0625 14.9023 12.3516C15.0508 12.6367 15.125 12.9609 15.125 13.3242C15.125 13.8125 14.9863 14.25 14.709 14.6367C14.4316 15.0195 14.0508 15.3203 13.5664 15.5391C13.082 15.7578 12.5293 15.8672 11.9082 15.8672Z" fill="#525252"/>
</svg>
