<svg width="18" height="18" viewBox="0 0 18 18" fill="none" xmlns="http://www.w3.org/2000/svg">
<g id="partners/points">
<g id="Vector">
<path fill-rule="evenodd" clip-rule="evenodd" d="M3 5.14609C2.50294 5.14609 2.1 5.54904 2.1 6.04609V13.7999C2.1 14.2973 2.50231 14.6999 2.99906 14.6999H12.6C13.0971 14.6999 13.5 14.297 13.5 13.7999V6.04609C13.5 5.54904 13.0971 5.14609 12.6 5.14609H3ZM1.5 6.04609C1.5 5.21767 2.17157 4.54609 3 4.54609H12.6C13.4284 4.54609 14.1 5.21767 14.1 6.04609V13.7999C14.1 14.6284 13.4284 15.2999 12.6 15.2999H2.99906C2.17033 15.2999 1.5 14.6281 1.5 13.7999V6.04609Z" fill="#525252"/>
<path fill-rule="evenodd" clip-rule="evenodd" d="M6.11484 2.99922C6.11484 2.83353 6.24916 2.69922 6.41484 2.69922H13.8456C15.0054 2.69922 15.9456 3.63942 15.9456 4.79922V10.6608C15.9456 10.8264 15.8113 10.9608 15.6456 10.9608C15.4799 10.9608 15.3456 10.8264 15.3456 10.6608V4.79922C15.3456 3.97079 14.674 3.29922 13.8456 3.29922H6.41484C6.24916 3.29922 6.11484 3.1649 6.11484 2.99922Z" fill="#525252"/>
<path fill-rule="evenodd" clip-rule="evenodd" d="M7.80078 11.9992C8.79489 11.9992 9.60078 11.1933 9.60078 10.1992C9.60078 9.20511 8.79489 8.39922 7.80078 8.39922C6.80667 8.39922 6.00078 9.20511 6.00078 10.1992C6.00078 11.1933 6.80667 11.9992 7.80078 11.9992ZM7.80078 12.5992C9.12626 12.5992 10.2008 11.5247 10.2008 10.1992C10.2008 8.87374 9.12626 7.79922 7.80078 7.79922C6.4753 7.79922 5.40078 8.87374 5.40078 10.1992C5.40078 11.5247 6.4753 12.5992 7.80078 12.5992Z" fill="#171B1F"/>
<path fill-rule="evenodd" clip-rule="evenodd" d="M3 5.14609C2.50294 5.14609 2.1 5.54904 2.1 6.04609V13.7999C2.1 14.2973 2.50231 14.6999 2.99906 14.6999H12.6C13.0971 14.6999 13.5 14.297 13.5 13.7999V6.04609C13.5 5.54904 13.0971 5.14609 12.6 5.14609H3ZM1.5 6.04609C1.5 5.21767 2.17157 4.54609 3 4.54609H12.6C13.4284 4.54609 14.1 5.21767 14.1 6.04609V13.7999C14.1 14.6284 13.4284 15.2999 12.6 15.2999H2.99906C2.17033 15.2999 1.5 14.6281 1.5 13.7999V6.04609Z" stroke="#525252" stroke-width="0.3"/>
<path fill-rule="evenodd" clip-rule="evenodd" d="M6.11484 2.99922C6.11484 2.83353 6.24916 2.69922 6.41484 2.69922H13.8456C15.0054 2.69922 15.9456 3.63942 15.9456 4.79922V10.6608C15.9456 10.8264 15.8113 10.9608 15.6456 10.9608C15.4799 10.9608 15.3456 10.8264 15.3456 10.6608V4.79922C15.3456 3.97079 14.674 3.29922 13.8456 3.29922H6.41484C6.24916 3.29922 6.11484 3.1649 6.11484 2.99922Z" stroke="#525252" stroke-width="0.3"/>
<path fill-rule="evenodd" clip-rule="evenodd" d="M7.80078 11.9992C8.79489 11.9992 9.60078 11.1933 9.60078 10.1992C9.60078 9.20511 8.79489 8.39922 7.80078 8.39922C6.80667 8.39922 6.00078 9.20511 6.00078 10.1992C6.00078 11.1933 6.80667 11.9992 7.80078 11.9992ZM7.80078 12.5992C9.12626 12.5992 10.2008 11.5247 10.2008 10.1992C10.2008 8.87374 9.12626 7.79922 7.80078 7.79922C6.4753 7.79922 5.40078 8.87374 5.40078 10.1992C5.40078 11.5247 6.4753 12.5992 7.80078 12.5992Z" stroke="#525252" stroke-width="0.3"/>
</g>
</g>
</svg>
