<svg width="41" height="40" viewBox="0 0 41 40" fill="none" xmlns="http://www.w3.org/2000/svg">
<circle cx="20.334" cy="20" r="20" fill="#F8F8F8"/>
<path d="M25 22L26.236 24.633L29 25.0578L27 27.1062L27.472 30L25 28.633L22.528 30L23 27.1062L21 25.0578L23.764 24.633L25 22Z" stroke="#171717" stroke-width="1.2" stroke-linecap="round" stroke-linejoin="round"/>
<path d="M18.5 29H12C12 25.4735 14.6077 22.5561 18 22.0709M23 15C23 17.2091 21.2091 19 19 19C16.7909 19 15 17.2091 15 15C15 12.7909 16.7909 11 19 11C21.2091 11 23 12.7909 23 15Z" stroke="#171717" stroke-width="1.2" stroke-linecap="round" stroke-linejoin="round"/>
</svg>
