<?xml version="1.0" encoding="UTF-8"?> <svg xmlns="http://www.w3.org/2000/svg" xmlns:xlink="http://www.w3.org/1999/xlink" version="1.1" id="Layer_1" x="0px" y="0px" viewBox="0 0 80 45" style="enable-background:new 0 0 80 45;" xml:space="preserve"> <style type="text/css"> .st0{fill:#56565A;} .st1{fill:#007DBB;} </style> <g> <g> <polygon class="st0" points="60.6,27.7 43.9,27.7 43.9,1.9 49.3,1.9 49.3,23.3 60.6,23.3 "></polygon> <polygon class="st0" points="64,27.7 64,18.1 55,1.9 60.9,1.9 66.7,12.9 66.8,12.9 72.6,1.9 78.4,1.9 69.4,18.1 69.4,27.7 "></polygon> <path class="st0" d="M7,27.7H1.6V1.8h10.6c5.9,0,9.3,3.1,9.3,8.3c0,3.3-1.7,6.2-4.7,7.4l5.4,10.3h-6.1l-4.8-9.5H7V27.7z M7,14.3 h4.7c2.7,0,4.3-1.6,4.3-4.1C16,7.7,14.3,6,11.6,6H7V14.3z"></path> <polygon class="st0" points="28.8,12.6 28.8,6.4 40.5,6.4 40.5,1.9 23.4,1.9 23.4,21.7 26.6,27.7 40.5,27.7 40.5,23.3 28.8,23.3 28.8,16.7 "></polygon> <path class="st1" d="M37.8,14.8c0,1.8-1.4,3.2-3.2,3.2c-1.8,0-3.2-1.4-3.2-3.2s1.4-3.2,3.2-3.2C36.3,11.5,37.8,13,37.8,14.8"></path> </g> <g> <path class="st1" d="M42.6,41.8c-0.1,0.4-0.5,0.7-1,0.7c-0.7,0-1.1-0.5-1.1-1.2c0-0.7,0.4-1.2,1-1.2c0.6,0,1,0.4,1,1.1v0.1h-1.6v0 c0,0.4,0.3,0.7,0.7,0.7c0.3,0,0.5-0.1,0.6-0.4H42.6z M40.9,41.1h1.2c0-0.4-0.2-0.7-0.6-0.7C41.2,40.4,41,40.7,40.9,41.1z"></path> <path class="st1" d="M44.2,41.6l-0.6,0.9h-0.4l0.8-1.1l-0.8-1.1h0.4l0.5,0.9h0l0.5-0.9h0.4l-0.8,1.1l0.8,1.2h-0.4L44.2,41.6 L44.2,41.6z"></path> <path class="st1" d="M48,41.3c0,0.7-0.4,1.2-1,1.2c-0.3,0-0.6-0.2-0.7-0.4h0v1.1h-0.4v-3h0.4v0.4h0c0.1-0.3,0.4-0.4,0.7-0.4 C47.6,40.1,48,40.6,48,41.3z M47.6,41.3c0-0.5-0.3-0.8-0.7-0.8c-0.4,0-0.7,0.3-0.7,0.8c0,0.5,0.3,0.8,0.7,0.8 C47.4,42.1,47.6,41.8,47.6,41.3z"></path> <path class="st1" d="M50.7,41.8c-0.1,0.4-0.5,0.7-1,0.7c-0.7,0-1.1-0.5-1.1-1.2c0-0.7,0.4-1.2,1-1.2c0.6,0,1,0.4,1,1.1v0.1h-1.6v0 c0,0.4,0.3,0.7,0.7,0.7c0.3,0,0.5-0.1,0.6-0.4H50.7z M49.1,41.1h1.2c0-0.4-0.2-0.7-0.6-0.7C49.4,40.4,49.2,40.7,49.1,41.1z"></path> <path class="st1" d="M53.1,40.9c-0.1-0.2-0.2-0.5-0.6-0.5c-0.4,0-0.7,0.3-0.7,0.8c0,0.5,0.3,0.8,0.7,0.8c0.3,0,0.5-0.2,0.6-0.4 h0.4c-0.1,0.5-0.4,0.8-1,0.8c-0.6,0-1.1-0.4-1.1-1.2c0-0.7,0.4-1.2,1.1-1.2c0.6,0,0.9,0.4,1,0.8H53.1z"></path> <path class="st1" d="M54.8,39.6v0.6h0.4v0.3h-0.4v1.4c0,0.2,0.1,0.3,0.3,0.3c0,0,0.1,0,0.2,0v0.3c0,0-0.2,0-0.2,0 c-0.4,0-0.6-0.2-0.6-0.6v-1.4h-0.3v-0.3h0.3v-0.6H54.8z"></path> <path class="st1" d="M57.5,40.1h0.4v0.4h0c0.1-0.2,0.3-0.4,0.6-0.4c0.3,0,0.5,0.2,0.6,0.4h0c0.1-0.3,0.4-0.4,0.7-0.4 c0.5,0,0.7,0.3,0.7,0.7v1.6h-0.4v-1.5c0-0.3-0.2-0.5-0.5-0.5c-0.3,0-0.5,0.2-0.5,0.5v1.5h-0.4v-1.5c0-0.3-0.2-0.5-0.5-0.5 c-0.3,0-0.5,0.2-0.5,0.6v1.4h-0.4V40.1z"></path> <path class="st1" d="M61.4,41.3c0-0.7,0.4-1.2,1.1-1.2c0.6,0,1.1,0.5,1.1,1.2c0,0.7-0.4,1.2-1.1,1.2C61.8,42.5,61.4,42,61.4,41.3z M63.2,41.3c0-0.5-0.3-0.8-0.7-0.8s-0.7,0.3-0.7,0.8s0.3,0.8,0.7,0.8S63.2,41.8,63.2,41.3z"></path> <path class="st1" d="M64.4,40.1h0.4v0.4h0c0.1-0.3,0.3-0.4,0.6-0.4c0.1,0,0.1,0,0.2,0v0.4c0,0-0.1,0-0.2,0c-0.3,0-0.5,0.2-0.5,0.5 v1.4h-0.4V40.1z"></path> <path class="st1" d="M68,41.8c-0.1,0.4-0.5,0.7-1,0.7c-0.7,0-1.1-0.5-1.1-1.2c0-0.7,0.4-1.2,1-1.2c0.6,0,1,0.4,1,1.1v0.1h-1.6v0 c0,0.4,0.3,0.7,0.7,0.7c0.3,0,0.5-0.1,0.6-0.4H68z M66.4,41.1h1.2c0-0.4-0.2-0.7-0.6-0.7C66.7,40.4,66.4,40.7,66.4,41.1z"></path> <path class="st1" d="M68.9,42.2c0-0.1,0.1-0.2,0.3-0.2s0.3,0.1,0.3,0.2s-0.1,0.2-0.3,0.2S68.9,42.3,68.9,42.2z"></path> </g> <g> <path class="st0" d="M1.8,37v-5.7H3V37H1.8z"></path> <path class="st0" d="M6.5,37v-5.7h1l2.6,3.7h0v-3.7h1.1V37h-1l-2.6-3.7h0V37H6.5z"></path> <path class="st0" d="M16.9,31.4c1.7,0,2.7,1,2.7,2.8c0,1.8-1,2.9-2.7,2.9h-2.2v-5.7H16.9z M15.9,36.1h0.8c1.1,0,1.6-0.6,1.6-1.9 c0-1.2-0.6-1.8-1.6-1.8h-0.8V36.1z"></path> <path class="st0" d="M24.1,34.9c0,0.7,0.4,1.2,1.2,1.2c0.8,0,1.2-0.5,1.2-1.2v-3.5h1.2V35c0,1.2-0.9,2.1-2.4,2.1 c-1.5,0-2.4-0.9-2.4-2.1v-3.7h1.2V34.9z"></path> <path class="st0" d="M32.1,35.4c0.1,0.5,0.5,0.8,1.2,0.8c0.6,0,1.1-0.3,1.1-0.7c0-0.4-0.3-0.6-1-0.7l-0.7-0.2 c-1-0.2-1.6-0.8-1.6-1.6c0-1,0.9-1.7,2.2-1.7c1.3,0,2.1,0.7,2.2,1.7h-1.1c0-0.5-0.5-0.8-1.1-0.8c-0.6,0-1,0.3-1,0.7 c0,0.3,0.3,0.5,0.9,0.7l0.7,0.1c1.1,0.2,1.6,0.7,1.6,1.6c0,1.1-0.9,1.8-2.3,1.8c-1.4,0-2.2-0.6-2.3-1.7H32.1z"></path> <path class="st0" d="M40.2,37v-4.7h-1.6v-1H43v1h-1.6V37H40.2z"></path> <path class="st0" d="M47.4,37h-1.2v-5.7h2.3c1.3,0,2,0.7,2,1.8c0,0.7-0.4,1.4-1,1.6l1.2,2.2h-1.3L48.3,35h-0.9V37z M47.4,34.1h1 c0.6,0,0.9-0.3,0.9-0.9c0-0.5-0.4-0.9-1-0.9h-1V34.1z"></path> <path class="st0" d="M53.9,37v-5.7h1.2V37H53.9z"></path> <path class="st0" d="M62.3,37h-3.7v-5.7h3.7v1h-2.6v1.4h2.4v0.9h-2.4v1.4h2.6V37z"></path> <path class="st0" d="M66.7,35.4c0.1,0.5,0.5,0.8,1.2,0.8c0.6,0,1.1-0.3,1.1-0.7c0-0.4-0.3-0.6-1-0.7l-0.7-0.2 c-1-0.2-1.6-0.8-1.6-1.6c0-1,0.9-1.7,2.2-1.7c1.3,0,2.1,0.7,2.2,1.7h-1.1c0-0.5-0.5-0.8-1.1-0.8c-0.6,0-1,0.3-1,0.7 c0,0.3,0.3,0.5,0.9,0.7l0.7,0.1c1.1,0.2,1.6,0.7,1.6,1.6c0,1.1-0.9,1.8-2.3,1.8c-1.4,0-2.2-0.6-2.3-1.7H66.7z"></path> </g> </g> </svg> 