<?xml version="1.0" encoding="utf-8"?>
<!-- Generator: Adobe Illustrator 24.2.3, SVG Export Plug-In . SVG Version: 6.00 Build 0)  -->
<svg version="1.1" id="Layer_1" xmlns="http://www.w3.org/2000/svg" xmlns:xlink="http://www.w3.org/1999/xlink" x="0px" y="0px"
	 viewBox="0 0 554.1 164.1" style="enable-background:new 0 0 554.1 164.1;" xml:space="preserve">
<style type="text/css">
	.st0{fill:#21153E;}
	.st1{fill:#FFFFFF;}
	.st2{fill:#3D3C42;}
</style>
<g>
	<path class="st0" d="M149.9,75.9l-35.2-65.7c-1.6-3-6-3-7.6,0L71.9,75.9c-1.5,2.9,0.5,6.4,3.8,6.4h7.1c3.2,0,6.1-1.8,7.6-4.5
		l4.9-9.2h31.1l4.9,9.2c1.5,2.8,4.4,4.5,7.6,4.5h7.1C149.3,82.3,151.4,78.8,149.9,75.9z M102,56.2l5.1-9.6c1.6-3,6-3,7.6,0l5.1,9.6
		C119.8,56.2,102,56.2,102,56.2z"/>
	<path class="st0" d="M476.1,75.9l-35.2-65.7c-1.6-3-6-3-7.6,0l-35.2,65.7c-1.5,2.9,0.5,6.4,3.8,6.4h7.1c3.2,0,6.1-1.8,7.6-4.5
		l4.9-9.2h31.1l4.9,9.2c1.5,2.8,4.4,4.5,7.6,4.5h7.1C475.5,82.3,477.6,78.8,476.1,75.9z M428.1,56.2l5.1-9.6c1.6-3,6-3,7.6,0
		l5.1,9.6C445.9,56.2,428.1,56.2,428.1,56.2z"/>
	<path class="st0" d="M59.4,59.3c0,7.3-2.2,12.9-6.9,17.1c-4.5,4.1-10,6.1-16.9,6.1c-7.3,0-14.4-1.2-21.2-3.5
		c-7.8-2.6-8.7-6.5-8.7-9.2c0-0.2,0-0.4,0-0.6c0-0.3,0-0.5,0-0.8c0.2-3,0.8-5.4,1.9-7c11.1,4.8,19.2,7.1,24.8,7.1c0.5,0,0.9,0,1.3,0
		c7.2-0.5,10.9-2.9,10.9-7.1c0-2.5-1-5.9-6-8.3c-3-1.4-7.2-3-12.4-4.7c-6.6-2.2-8.2-3.4-8.5-3.8l-0.2-0.2l-0.2-0.2
		c-5.1-3.3-7.5-8.2-7.3-15c0.2-7.1,2.4-12.6,6.9-16.8c4.4-4.2,9.9-6.3,16.9-6.5c0.2,0,0.5,0,0.7,0c6.6,0,15,2.3,25.1,6.8
		c-0.4,1.6-0.8,3.4-1.4,5.1c-0.1,0.2-0.2,0.5-0.3,0.7c-1.1,2.9-2.7,5.2-4.9,5.2c-0.4,0-0.8,0-1.2-0.2C43.3,20.5,37.2,19,33,19
		c-3,0-5.1,0.7-6.5,2.3c-0.8,0.8-1.7,2.3-1.5,4.7c0,2.3,1.1,5.4,5.8,8c3,1.6,7.1,3.3,12.4,5.2c6.2,2.2,8.3,3.2,9,3.7
		C57,46.7,59.4,52.1,59.4,59.3z"/>
	<path class="st0" d="M230.7,8.2V75c0,3.8-1.1,7.3-8.7,7.3c-3.5,0-6.1-1.1-8-3.4l-26.3-31.3l-5.3-6.3V75c0,3.8-1.1,7.3-8.7,7.3h-8.8
		v-74h8.8h0.2c3.9,0,6.5,1.2,8.1,3.5l0.1,0.1L182,12l25.9,30.8l5.3,6.3V15.5c0-3.8,1.1-7.3,8.6-7.3H230.7z"/>
	<path class="st0" d="M303.3,59.3c0,7.3-2.2,12.9-6.9,17.1c-4.5,4.1-10,6.1-16.9,6.1c-7.2,0-14.4-1.2-21.2-3.5
		c-7.8-2.6-8.7-6.5-8.7-9.2c0-0.4,0-0.7,0-1s0-0.5,0-0.8c0.2-2.8,0.8-5,1.9-6.6c11.1,4.8,19.2,7.1,24.8,7.1c0.5,0,0.9,0,1.3,0
		c7.2-0.5,10.9-2.9,10.9-7.1c0-2.5-1.1-5.9-6.1-8.3c-3-1.4-7.1-3-12.4-4.7c-6.6-2.2-8.2-3.4-8.5-3.8l-0.2-0.2l-0.2-0.2
		c-5.1-3.4-7.5-8.4-7.4-15.2c0.2-7.1,2.4-12.6,6.9-16.8c4.4-4.2,9.9-6.3,16.9-6.5c0.2,0,0.5,0,0.7,0c6.6,0,15,2.3,25.1,6.8
		c-0.4,1.9-0.9,3.9-1.7,5.8c-0.1,0.2-0.2,0.5-0.3,0.7c-1.1,2.5-2.6,4.5-4.6,4.5c-0.3,0-0.7,0-1.2-0.2c-8.5-3-14.6-4.5-18.8-4.5
		c-3,0-5.1,0.7-6.5,2.3c-0.8,0.8-1.7,2.3-1.5,4.7c0,2.3,1.1,5.4,5.8,8c3,1.6,7.1,3.3,12.4,5.2c6.2,2.2,8.3,3.2,9,3.7
		C300.9,46.7,303.3,52.1,303.3,59.3z"/>
	<path class="st0" d="M384,75c-0.1,2-1.2,3.8-3.3,5.7c-1.7,1.5-3.5,2.3-5.4,2.3c-0.3,0-0.7,0-1-0.1c-2.4-0.3-4.6-1.7-6.7-4.4v-0.1
		l-0.1-0.1l-22.6-25.2l-5.2-5.8V75c0,3.7-1,7.2-8.2,7.3c-0.2,0-0.3,0-0.5,0h-8.7v-74h17.5v34.6l5.2-5.8L367.6,12l0.1-0.1v-0.1
		c2.2-2.7,4.4-4.1,6.7-4.4c0.3,0,0.7-0.1,1-0.1c1.9,0,3.6,0.7,5.3,2.3c0.2,0.2,0.4,0.3,0.5,0.5c0.2,0.2,0.3,0.3,0.5,0.5
		c1.3,1.5,2.1,3,2.2,4.7c0.1,2-0.9,4.1-3,6.5L362.2,43l-1.8,2l1.7,2l18.8,21.4C383.1,70.9,384.1,73.1,384,75z"/>
	<path class="st0" d="M544.9,67.8L544.9,67.8l-0.1-0.2L534.1,53l-2-2.7l2.9-1.7c7-4,10.5-10.4,10.5-19.6c0-5.1-1.9-9.7-5.8-14.3
		c-3.8-4.4-8.4-6.5-14.1-6.5h-35.3v74h9c7.5-0.1,8.5-3.5,8.5-7.3V45.7l5.4,7.4l18.5,25.3c2.5,2.9,4.8,4.3,6.9,4.4h0.3
		c2.2,0,4.2-0.8,6.3-2.5c2-1.7,3.1-3.4,3.1-5.3C548.4,73,547.2,70.6,544.9,67.8z M517.5,42.6h-9.8V18.4h9.8c8.2,0,13,4.4,13,12.1
		S525.7,42.6,517.5,42.6z"/>
	<g>
		<g>
			<path class="st1" d="M174.6,66.3c-0.7-0.4-1.5-0.4-2.2-0.2c-0.8,0.2-1.4,0.8-1.7,1.4c-0.4,0.7-0.4,1.5-0.2,2.2
				c0.2,0.8,0.8,1.4,1.5,1.7c0.3,0.2,0.6,0.3,0.9,0.3c0.1,0,0.3,0,0.4,0c0.1,0,0.2,0,0.3,0c0.2,0,0.4,0,0.6-0.1
				c0.8-0.2,1.4-0.8,1.7-1.5C176.6,68.8,176,67.1,174.6,66.3z M175.2,69.9c-0.3,0.5-0.7,0.9-1.3,1.1s-1.2,0.1-1.7-0.1
				c-1.1-0.6-1.5-1.9-0.9-3c0.3-0.5,0.7-0.9,1.3-1.1c0.2-0.1,0.4-0.1,0.7-0.1c0.4,0,0.7,0.1,1,0.3C175.3,67.5,175.7,68.9,175.2,69.9
				z"/>
		</g>
		<g>
			<polygon class="st1" points="173.6,82.3 172.8,82.3 172.8,71.8 172.8,71.8 173.5,71.8 173.5,71.8 			"/>
		</g>
	</g>
	<g>
		<g>
			<path class="st1" d="M332.4,62c-0.7-0.4-1.5-0.4-2.2-0.2s-1.4,0.8-1.7,1.4c-0.4,0.7-0.4,1.5-0.2,2.2c0.2,0.8,0.8,1.4,1.4,1.7
				c0.3,0.2,0.6,0.3,0.9,0.3c0.1,0,0.3,0,0.4,0s0.2,0,0.3,0c0.2,0,0.4,0,0.6-0.1c0.8-0.2,1.4-0.8,1.7-1.5
				C334.4,64.5,333.8,62.7,332.4,62z M333,65.6c-0.3,0.5-0.7,0.9-1.3,1.1c-0.6,0.2-1.2,0.1-1.7-0.1c-1.1-0.6-1.5-1.9-0.9-3
				c0.3-0.5,0.7-0.9,1.3-1.1c0.2-0.1,0.5-0.1,0.7-0.1c0.3,0,0.7,0.1,1,0.3C333.1,63.2,333.6,64.5,333,65.6z"/>
		</g>
		<g>
			<path class="st1" d="M331.4,82.3c-0.2,0-0.3,0-0.5,0h-0.2l-0.1-14.8l0,0h0.7l0,0L331.4,82.3z"/>
		</g>
	</g>
	<g>
		<g>
			<path class="st1" d="M500.2,62c-0.7-0.4-1.5-0.4-2.2-0.2c-0.8,0.2-1.4,0.8-1.7,1.4c-0.4,0.7-0.4,1.5-0.2,2.2
				c0.2,0.8,0.8,1.4,1.5,1.7c0.3,0.2,0.6,0.3,0.9,0.3c0.1,0,0.3,0,0.4,0s0.2,0,0.3,0c0.2,0,0.4,0,0.6-0.1c0.8-0.2,1.4-0.8,1.7-1.5
				C502.2,64.5,501.6,62.7,500.2,62z M500.8,65.6c-0.3,0.5-0.7,0.9-1.3,1.1c-0.6,0.2-1.2,0.1-1.7-0.1c-1.1-0.6-1.5-1.9-0.9-3
				c0.3-0.5,0.7-0.9,1.3-1.1c0.2-0.1,0.4-0.1,0.7-0.1c0.4,0,0.7,0.1,1,0.3C500.9,63.2,501.3,64.5,500.8,65.6z"/>
		</g>
		<g>
			<polygon class="st1" points="499.2,82.3 498.5,82.3 498.4,67.5 498.4,67.5 499.1,67.5 499.1,67.5 			"/>
		</g>
	</g>
	<g>
		<g>
			<path class="st1" d="M266.5,70.9c-0.6-0.5-1.3-0.9-2.1-0.8c-0.8,0-1.5,0.3-2.1,0.9c-0.2,0.2-0.4,0.5-0.6,0.8
				c-0.1,0.1-0.1,0.3-0.2,0.4c0,0.1,0,0.2-0.1,0.3c0,0.2-0.1,0.4-0.1,0.6c0,0.8,0.3,1.5,0.9,2.1c1.2,1.1,3,1.1,4.2,0
				c0.5-0.6,0.8-1.3,0.8-2.1C267.4,72.1,267.1,71.4,266.5,70.9z M266,74.5c-0.8,0.9-2.3,0.9-3.1,0c-0.4-0.4-0.7-1-0.7-1.5
				c0-0.6,0.2-1.1,0.6-1.6c0.9-0.9,2.3-0.9,3.1,0c0.4,0.4,0.7,1,0.7,1.6c0,0.2,0,0.5-0.1,0.7C266.5,73.9,266.3,74.2,266,74.5z"/>
		</g>
		<g>
			<path class="st1" d="M261.8,71.7l-0.2,0.7l0,0l-12-3.6c0-0.3,0-0.5,0-0.8L261.8,71.7L261.8,71.7z"/>
		</g>
	</g>
	<g>
		<g>
			<path class="st1" d="M20,70.5c-0.6-0.6-1.3-0.9-2.1-0.9c-0.8,0-1.5,0.3-2.1,0.9c-0.2,0.2-0.4,0.5-0.6,0.8
				c-0.1,0.1-0.1,0.3-0.1,0.4s0,0.2-0.1,0.3c0,0.2-0.1,0.4-0.1,0.6c0,0.8,0.3,1.5,0.9,2.1c1.1,1.1,3,1.1,4.1,0
				c0.6-0.6,0.9-1.3,0.8-2.1C20.9,71.8,20.6,71,20,70.5z M19.5,74.1c-0.9,0.9-2.3,0.9-3.1,0c-0.4-0.4-0.7-1-0.7-1.5
				c0-0.6,0.2-1.2,0.6-1.6c0.8-0.9,2.2-0.9,3.1,0c0.4,0.4,0.7,1,0.7,1.5c0,0.2,0,0.5-0.1,0.7C20,73.6,19.8,73.9,19.5,74.1z"/>
		</g>
		<g>
			<path class="st1" d="M15.3,71.4l-0.2,0.7l0,0l-9.3-2.8c0-0.3,0-0.5,0-0.8L15.3,71.4L15.3,71.4z"/>
		</g>
	</g>
	<g>
		<g>
			<path class="st1" d="M296.4,14.6c-1.2-1.1-3-1.1-4.1,0.1c-0.5,0.6-0.8,1.3-0.8,2.1c0,0.8,0.3,1.5,0.9,2.1
				c0.6,0.5,1.3,0.8,2.1,0.8c0.8,0,1.5-0.3,2-0.9c0.2-0.3,0.4-0.5,0.5-0.8c0.1-0.1,0.1-0.3,0.2-0.4c0-0.1,0.1-0.2,0.1-0.3
				c0-0.2,0.1-0.4,0-0.6C297.3,15.8,296.9,15.1,296.4,14.6z M295.9,18.2c-0.8,0.9-2.2,0.9-3.1,0.1c-0.4-0.4-0.7-1-0.7-1.5
				c0-0.2,0-0.5,0.1-0.7c0.1-0.3,0.3-0.6,0.5-0.9c0.8-0.9,2.2-0.9,3.1-0.1c0.4,0.4,0.7,1,0.7,1.5C296.6,17.2,296.3,17.8,295.9,18.2z
				"/>
		</g>
		<g>
			<path class="st1" d="M301.7,18.5c-0.1,0.2-0.2,0.5-0.3,0.7l-4.4-1.3l0,0l0.2-0.7l0,0L301.7,18.5z"/>
		</g>
	</g>
	<g>
		<g>
			<path class="st1" d="M49.7,13c-1.2-1.1-3-1.1-4.2,0.1c-0.5,0.6-0.8,1.3-0.8,2.1c0,0.8,0.3,1.5,0.9,2.1c0.6,0.5,1.3,0.8,2.1,0.8
				s1.5-0.3,2.1-0.9c0.2-0.3,0.4-0.5,0.6-0.8c0.1-0.1,0.1-0.3,0.1-0.4s0-0.2,0.1-0.3c0-0.2,0.1-0.4,0.1-0.6
				C50.6,14.3,50.3,13.5,49.7,13z M49.3,16.6c-0.8,0.9-2.2,0.9-3.1,0.1c-0.4-0.4-0.7-0.9-0.7-1.5c0-0.2,0-0.5,0.1-0.7
				c0.1-0.3,0.3-0.6,0.5-0.9c0.8-0.9,2.2-0.9,3.1-0.1c0.4,0.4,0.7,1,0.7,1.5C49.9,15.7,49.7,16.2,49.3,16.6z"/>
		</g>
		<g>
			<path class="st1" d="M58.1,17.8c-0.1,0.2-0.2,0.5-0.3,0.7l-7.5-2.1l0,0l0.2-0.7l0,0L58.1,17.8z"/>
		</g>
	</g>
	<g>
		<g>
			<path class="st1" d="M225,21.7c-0.2-0.7-0.8-1.3-1.4-1.7c-0.3-0.2-0.6-0.3-1-0.3c-0.1,0-0.3,0-0.4,0c-0.1,0-0.2,0-0.3,0
				c-0.2,0-0.4,0.1-0.6,0.1c-0.8,0.2-1.4,0.8-1.7,1.4c-0.8,1.4-0.2,3.2,1.3,4c0.7,0.4,1.5,0.4,2.2,0.2c0.8-0.2,1.4-0.8,1.7-1.4
				C225.1,23.2,225.2,22.4,225,21.7z M224.1,23.6c-0.3,0.5-0.7,0.9-1.3,1.1c-0.2,0.1-0.4,0.1-0.7,0.1c-0.4,0-0.7-0.1-1-0.3
				c-1.1-0.6-1.5-1.9-0.9-3c0.3-0.5,0.7-0.9,1.3-1.1s1.2-0.1,1.7,0.1C224.3,21.1,224.7,22.5,224.1,23.6z"/>
		</g>
		<g>
			<polygon class="st1" points="222.6,19.6 222.6,19.7 221.8,19.7 221.8,19.6 221.8,8.2 222.5,8.2 			"/>
		</g>
	</g>
	<g>
		<g>
			<path class="st1" d="M135,61c-0.8,0-1.5,0.3-2.1,0.8s-0.9,1.3-0.9,2.1s0.3,1.5,0.8,2.1c0.5,0.6,1.3,0.9,2.1,0.9
				c0.3,0,0.7,0,1-0.1c0.1,0,0.3-0.1,0.4-0.2c0.1,0,0.2-0.1,0.3-0.2c0.2-0.1,0.3-0.2,0.5-0.3c0.6-0.5,0.9-1.3,0.9-2.1
				C137.9,62.4,136.6,61,135,61z M136.5,65.5c-0.4,0.4-1,0.6-1.6,0.6c-1.2,0-2.2-1-2.2-2.3c0-0.6,0.3-1.1,0.7-1.5
				c0.2-0.2,0.4-0.3,0.6-0.4c0.3-0.2,0.7-0.2,1-0.2c1.2,0,2.2,1,2.2,2.3C137.2,64.6,136.9,65.1,136.5,65.5z"/>
		</g>
		<g>
			<polygon class="st1" points="144.5,82.3 143.7,82.3 135.9,66.7 135.9,66.7 136.5,66.4 136.5,66.4 			"/>
		</g>
	</g>
	<g>
		<g>
			<path class="st1" d="M461.7,64c-0.8,0-1.5,0.3-2.1,0.8s-0.9,1.3-0.9,2c0,0.8,0.3,1.5,0.8,2.1s1.3,0.9,2.1,0.9c0.3,0,0.7,0,1-0.1
				c0.1,0,0.3-0.1,0.4-0.2c0.1,0,0.2-0.1,0.3-0.2c0.2-0.1,0.3-0.2,0.5-0.4c0.6-0.5,0.9-1.3,0.9-2C464.6,65.4,463.3,64,461.7,64z
				 M463.2,68.5c-0.4,0.4-1,0.6-1.6,0.6c-1.2,0-2.2-1-2.1-2.2c0-0.6,0.3-1.1,0.7-1.5c0.2-0.2,0.3-0.3,0.5-0.4c0.3-0.2,0.7-0.2,1-0.2
				c1.2,0,2.2,1,2.2,2.3C463.8,67.5,463.6,68.1,463.2,68.5z"/>
		</g>
		<g>
			<polygon class="st1" points="469.7,82.3 468.8,82.3 462.5,69.7 462.5,69.7 463.2,69.3 463.2,69.4 			"/>
		</g>
	</g>
	<g>
		<g>
			<path class="st1" d="M378.3,16c-0.1-0.3-0.3-0.6-0.5-0.9c-0.1-0.1-0.2-0.2-0.3-0.3c-0.1-0.1-0.2-0.1-0.3-0.2
				c-0.2-0.1-0.3-0.2-0.5-0.3c-0.7-0.3-1.5-0.3-2.2-0.1c-1.5,0.6-2.3,2.3-1.7,3.8c0.3,0.7,0.8,1.3,1.5,1.6c0.7,0.3,1.5,0.3,2.2,0.1
				c0.7-0.3,1.3-0.8,1.6-1.5C378.5,17.5,378.5,16.7,378.3,16z M376.3,19.1c-0.6,0.2-1.2,0.2-1.7-0.1c-0.2-0.1-0.4-0.2-0.6-0.4
				c-0.3-0.2-0.5-0.5-0.6-0.9c-0.4-1.1,0.2-2.4,1.3-2.8c0.6-0.2,1.1-0.2,1.7,0.1c0.5,0.2,0.9,0.7,1.1,1.2
				C378,17.4,377.4,18.6,376.3,19.1z"/>
		</g>
		<g>
			<path class="st1" d="M381.7,10.7l-4,4.4l0,0l-0.5-0.5l0,0l4-4.5C381.4,10.3,381.6,10.5,381.7,10.7z"/>
		</g>
	</g>
	<g>
		<path class="st1" d="M91.6,59.2c-0.1,0-0.2,0-0.2-0.1c-0.2-0.1-0.3-0.4-0.2-0.7l18.2-35.2c0.1-0.2,0.4-0.3,0.7-0.2
			c0.2,0.1,0.3,0.4,0.2,0.7L92.1,58.9C92,59.1,91.8,59.2,91.6,59.2z"/>
	</g>
	<g>
		<path class="st1" d="M217.3,70.1c-0.1,0-0.3-0.1-0.4-0.2l-24.6-31c-0.2-0.2-0.1-0.5,0.1-0.7c0.2-0.2,0.5-0.1,0.7,0.1l24.6,31
			c0.2,0.2,0.1,0.5-0.1,0.7C217.6,70,217.4,70.1,217.3,70.1z"/>
	</g>
	<g>
		<path class="st1" d="M413.2,67.4c-0.1,0-0.2,0-0.2-0.1c-0.2-0.1-0.3-0.4-0.2-0.7L431,31.4c0.1-0.2,0.4-0.3,0.7-0.2
			c0.2,0.1,0.3,0.4,0.2,0.7l-18.2,35.2C413.6,67.3,413.4,67.4,413.2,67.4z"/>
	</g>
	<g>
		<path class="st1" d="M373.2,74.3c-0.1,0-0.3-0.1-0.4-0.2l-14.5-17c-0.2-0.2-0.2-0.5,0.1-0.7c0.2-0.2,0.5-0.2,0.7,0.1l14.5,17
			c0.2,0.2,0.2,0.5-0.1,0.7C373.4,74.2,373.3,74.3,373.2,74.3z"/>
	</g>
	<g>
		<path class="st1" d="M537.1,71.2c-0.2,0-0.3-0.1-0.4-0.2l-13.3-18c-0.2-0.2-0.1-0.5,0.1-0.7c0.2-0.2,0.5-0.1,0.7,0.1l13.3,18
			c0.2,0.2,0.1,0.5-0.1,0.7C537.3,71.2,537.2,71.2,537.1,71.2z"/>
	</g>
</g>
<g>
	<path class="st2" d="M22.2,156.4c0.5,0.5,1.1,0.7,2,0.7c0.8,0,1.5-0.2,1.9-0.7c0.5-0.5,0.7-1.1,0.7-1.9v-33c0-1.6,0.5-2.9,1.5-3.8
		c1-1,2.3-1.5,3.8-1.5h8.3c1,0,1.4-0.4,1.7-0.6c0.4-0.4,0.6-1,0.6-1.8c0-1-0.3-1.5-0.6-1.7c-0.3-0.3-0.7-0.6-1.7-0.6H8
		c-1,0-1.4,0.4-1.7,0.6c-0.4,0.4-0.6,1-0.6,1.8c0,1,0.3,1.5,0.6,1.7c0.3,0.3,0.7,0.6,1.7,0.6h8.2c1.6,0,2.9,0.5,3.8,1.5
		s1.4,2.3,1.4,3.8v33C21.5,155.3,21.7,155.9,22.2,156.4z"/>
	<g>
		<path class="st2" d="M55.5,111.3c-0.8,0-1.4,0.2-1.9,0.7s-0.7,1.1-0.7,1.9v-0.5c0-0.7,0.2-1.2,0.6-1.5c0.4-0.4,0.9-0.6,1.6-0.6
			H55.5z"/>
		<path class="st2" d="M52.9,155.1V155v-0.1C52.9,154.9,52.9,155,52.9,155.1z"/>
		<path class="st2" d="M52.9,154.6L52.9,154.6c0,0.1,0,0.1,0,0.2v-0.4C52.9,154.5,52.9,154.5,52.9,154.6L52.9,154.6z"/>
		<path class="st2" d="M55.2,157.1H55c-0.7,0-1.2-0.2-1.6-0.6c-0.3-0.3-0.5-0.8-0.5-1.4c0.1,0.7,0.4,1.1,0.6,1.3
			C53.8,156.7,54.2,157.1,55.2,157.1z"/>
		<path class="st2" d="M81.5,154.4v0.2c0-1-0.4-1.5-0.6-1.7c-0.3-0.3-0.7-0.6-1.7-0.6h0.2c0.7,0,1.2,0.2,1.5,0.6
			S81.5,153.7,81.5,154.4z"/>
		<path class="st2" d="M81.5,154.6v0.3c0,0.7-0.2,1.2-0.6,1.6c-0.4,0.4-0.9,0.6-1.5,0.6h-0.2c1,0,1.5-0.4,1.7-0.6
			C81.3,156,81.5,155.4,81.5,154.6z"/>
	</g>
	<path class="st2" d="M124.3,112.9c-1.6-0.8-3.3-1.5-5-1.9s-3.5-0.7-5.3-0.7c-3.9,0-7.4,0.7-10.3,2.1c-2.9,1.4-5.4,3.2-7.4,5.4
		c-2,2.2-3.5,4.8-4.4,7.6c-1,2.9-1.5,5.9-1.5,8.8c0,3,0.5,6,1.5,8.8c1,2.9,2.5,5.4,4.4,7.6c2,2.2,4.5,4,7.4,5.4s6.4,2.1,10.3,2.1
		c2.2,0,4.2-0.2,5.9-0.6c1.6-0.4,3.2-1,4.6-1.8c0.6-0.4,1-0.8,1.1-1.5s-0.1-1.3-0.6-2.1c-0.6-0.8-1.3-1.1-2.2-1.1
		c-0.3,0-1,0.1-1.9,0.4c-0.9,0.4-1.9,0.7-3,1c-1.1,0.2-2.4,0.3-3.8,0.3c-4,0-7.3-0.9-10-2.8c-2.6-1.8-4.6-4.2-6-6.9
		c-1.3-2.7-2-5.7-2-8.9s0.7-6.2,2-8.9c1.3-2.8,3.3-5.1,6-6.9c2.7-1.9,6.1-2.8,10-2.8c1.3,0,2.5,0.1,3.6,0.4s2.1,0.6,3,1
		c1,0.4,1.6,0.5,2,0.5c1,0,1.6-0.4,2.2-1.2l0,0l0,0c0.7-0.9,0.7-1.6,0.6-2C125.3,113.6,124.9,113.2,124.3,112.9z"/>
	<path class="st2" d="M172.2,156.4c0.5,0.5,1.1,0.7,2,0.7c0.8,0,1.5-0.2,1.9-0.7c0.5-0.5,0.7-1.1,0.7-1.9V114c0-0.8-0.2-1.4-0.7-1.9
		s-1.1-0.7-2-0.7s-1.5,0.2-2,0.7s-0.7,1.1-0.7,1.9v12.4c0,1.6-0.5,2.9-1.5,3.9s-2.3,1.5-3.9,1.5h-15.4c-1.6,0-2.9-0.5-4-1.5
		c-1-1-1.5-2.3-1.5-3.9V114c0-0.8-0.2-1.4-0.7-1.9s-1.1-0.7-2-0.7c-0.8,0-1.4,0.2-1.9,0.7s-0.7,1.1-0.7,1.9v18.2v0.1l0,0l0,0v0.1
		l0,0v22c0,0.8,0.2,1.4,0.7,1.9s1.1,0.7,1.9,0.7h0.1c0.8,0,1.4-0.2,1.9-0.7s0.7-1.1,0.7-1.9V138v-1.5h1.5H166c1.6,0,2.9,0.5,3.9,1.5
		s1.5,2.3,1.5,3.9v12.4C171.5,155.3,171.7,155.9,172.2,156.4z"/>
	<path class="st2" d="M227.1,157c0,0,0.1-0.1,0.1-0.3V114c0-0.8-0.2-1.4-0.7-1.9s-1.1-0.7-2-0.7c-0.8,0-1.4,0.2-1.9,0.7
		s-0.7,1.1-0.7,1.9v22.6c0,3.2-1.7,3.6-2.5,3.6c-0.9,0-1.8-0.5-2.8-1.5l0,0l0,0L191.7,112l0,0l0,0c-0.3-0.4-0.7-0.6-1.2-0.6v3.7v0.1
		v39.3c0,0.8,0.2,1.4,0.7,1.9s1.1,0.7,2,0.7c0.8,0,1.4-0.2,1.9-0.7s0.7-1.1,0.7-1.9v-26.7V124l2.6,2.8l28,30.1l0,0l0,0
		c0,0.1,0.1,0.1,0.4,0.1C227,157.1,227.1,157,227.1,157z"/>
	<path class="st2" d="M279.5,116.2c-2.2-2-4.7-3.5-7.5-4.5s-5.8-1.5-8.7-1.5c-3,0-5.9,0.5-8.8,1.5c-2.8,1-5.4,2.5-7.5,4.5
		c-2.2,2-4,4.5-5.3,7.5s-2,6.5-2,10.5s0.7,7.6,2,10.6s3.1,5.5,5.3,7.4c2.2,2,4.7,3.5,7.5,4.5c2.8,1,5.8,1.5,8.8,1.5
		c2.9,0,5.8-0.5,8.7-1.5c2.8-1,5.4-2.5,7.5-4.5c2.2-2,4-4.5,5.3-7.4c1.3-3,2-6.5,2-10.6c0-4-0.7-7.5-2-10.5S281.7,118.2,279.5,116.2
		z M280.1,142.3c-1.1,2.3-2.5,4.2-4.2,5.8s-3.7,2.8-6,3.5c-2.2,0.7-4.4,1.1-6.7,1.1c-2.3,0-4.6-0.4-6.7-1.1
		c-2.2-0.8-4.2-1.9-5.9-3.5c-1.7-1.6-3.1-3.5-4.2-5.8s-1.6-5-1.6-8.1c0-3,0.5-5.7,1.6-8.1c1.1-2.3,2.5-4.3,4.2-5.8
		c1.7-1.6,3.7-2.8,5.9-3.5c2.2-0.7,4.4-1.1,6.7-1.1c2.2,0,4.5,0.4,6.7,1.1c2.2,0.8,4.2,1.9,6,3.5c1.7,1.6,3.1,3.5,4.2,5.8
		c1.1,2.3,1.6,5,1.6,8.1C281.7,137.3,281.2,140,280.1,142.3z"/>
	<path class="st2" d="M260.2,137.4c-1-1-1.5-2-1.5-3.2s0.5-2.2,1.4-3.1l0.1-0.1c0.9-0.9,2-1.4,3.1-1.4c1.2,0,2.3,0.5,3.1,1.4
		c1,1,1.5,2,1.5,3.2s-0.5,2.2-1.4,3.1c-1,1-2,1.5-3.2,1.5C262.1,138.8,261.1,138.4,260.2,137.4z"/>
	<path class="st2" d="M299.3,154.8c0,1,0.3,1.4,0.6,1.7c0.3,0.3,0.7,0.6,1.7,0.6h23.9c1,0,1.4-0.4,1.7-0.6c0.4-0.4,0.6-1,0.6-1.8
		c0-1-0.3-1.5-0.6-1.7c-0.3-0.3-0.7-0.6-1.7-0.6h-19.4h-1.5v-1.5V114c0-0.8-0.2-1.4-0.7-1.9s-1.1-0.7-2-0.7c-0.8,0-1.4,0.2-1.9,0.7
		s-0.7,1.1-0.7,1.9v40.5c0,0.1,0,0.1,0,0.2l0,0l0,0V154.8z"/>
	<path class="st2" d="M58.3,116.1v15.7h21.1c0.7,0,1.2,0.2,1.5,0.6c0.4,0.4,0.6,0.9,0.6,1.6v0.5c0,0.7-0.2,1.2-0.6,1.5
		s-0.9,0.6-1.5,0.6H58.3v15.7h20.9c1,0,1.5,0.3,1.7,0.6c0.3,0.3,0.6,0.7,0.6,1.7c0,0.8-0.2,1.4-0.6,1.8c-0.3,0.3-0.7,0.6-1.7,0.6
		H55.3c-1,0-1.5-0.3-1.7-0.6c-0.2-0.2-0.5-0.6-0.6-1.3V155c0-0.1,0-0.2,0-0.3s0-0.1,0-0.2l0,0l0,0c0,0,0-0.1,0-0.2V114
		c0-0.8,0.2-1.4,0.7-1.9s1.1-0.7,1.9-0.7h23.8c0.7,0,1.2,0.2,1.5,0.6s0.6,0.9,0.6,1.5v0.6c0,0.7-0.2,1.2-0.6,1.5
		c-0.4,0.4-0.9,0.6-1.5,0.6L58.3,116.1L58.3,116.1z"/>
	<path class="st2" d="M417.6,116.8c-1-1.6-2.6-2.9-4.5-3.9c-2-1-4.4-1.6-7.3-1.6h-11c-1.4,0-2.4,0.4-3.2,1.2
		c-0.8,0.8-1.2,1.9-1.2,3.2v36.9c0,1.4,0.4,2.4,1.2,3.2c0.8,0.8,1.9,1.2,3.2,1.2h14.9c2.3,0,4.4-0.4,6.1-1.2s3.1-1.8,4.3-3
		c1.1-1.2,2-2.7,2.5-4.2c0.6-1.6,0.9-3.3,0.9-4.9c0-1.7-0.3-3.3-0.9-4.9c-0.6-1.6-1.4-3-2.6-4.2c-1.9-2-2.3-4.5-1.3-7.1
		c0.6-1.7,0.9-3.5,0.7-5.4C419.3,120.2,418.7,118.4,417.6,116.8z M417,147.8c-0.6,1.2-1.5,2.3-2.7,3.2s-2.8,1.3-4.6,1.3h-8.4
		c-1.7,0-3-0.5-4.1-1.6c-1-1-1.6-2.4-1.6-4v-25.1c0-1.6,0.5-2.9,1.6-4c1-1,2.4-1.5,4.1-1.5h4.5c1.6,0,3.1,0.3,4.3,1
		c1.2,0.7,2.1,1.5,2.8,2.5c0.6,1,1,2.2,1.1,3.4c0.1,1.2-0.2,2.4-0.7,3.4c-0.5,1.1-1.3,2.1-2.4,2.7c-2.6,1.5-7.5,1.2-9,1.3
		c-0.8,0.1-1.5,0.3-1.9,0.7c-0.3,0.3-0.6,0.7-0.6,1.7c0,0.8,0.2,1.3,0.6,1.7s1,0.6,1.8,0.6h8c1.8,0,3.3,0.4,4.6,1.3
		c1.2,0.8,2.1,1.9,2.7,3.2c0.6,1.2,0.9,2.6,0.9,4C417.8,145.2,417.5,146.6,417,147.8z"/>
	<path class="st2" d="M377.6,154.9c-0.1-0.4-0.2-1-0.5-1.5l-8.7-19l-8.3-18.1c-0.1-0.2-0.1-0.3-0.2-0.5c-0.1-0.1-0.1-0.2-0.2-0.4
		c-0.1-0.2-0.2-0.3-0.3-0.5c-0.3-0.4-0.5-0.8-0.8-1c-0.1-0.1-0.2-0.2-0.3-0.2c-0.1-0.1-0.2-0.1-0.3-0.2c-0.1,0-0.2-0.1-0.3-0.1
		c-0.1,0-0.2,0-0.3,0.1c-0.1,0-0.2,0.1-0.3,0.2c-0.1,0-0.1,0.1-0.2,0.1l-0.1,0.1c0,0,0,0-0.1,0.1c0,0,0,0,0,0.1
		c-0.1,0.1-0.1,0.1-0.2,0.2c-0.2,0.2-0.3,0.4-0.5,0.7c-0.1,0.1-0.1,0.2-0.2,0.3c-0.1,0.1-0.1,0.2-0.2,0.3l0,0
		c-0.1,0.2-0.2,0.4-0.3,0.7v0.1l-10.2,22.1l-6.9,15c-0.2,0.4-0.3,0.8-0.4,1.2c0,0.1-0.1,0.2-0.1,0.4s0,0.4,0,0.6
		c0,0.3,0.1,0.5,0.2,0.7c0.2,0.4,0.7,0.6,1.3,0.8c0.4,0.1,0.8,0.1,1.4,0.1c0.1,0,0.3,0,0.4,0c0.2,0,0.5-0.1,0.7-0.3
		c0.3-0.2,0.5-0.4,0.6-0.7l0,0l0,0l2.7-5.8h25.1l2.7,5.8l0,0l0,0c0.1,0.3,0.3,0.5,0.6,0.7c0.2,0.1,0.5,0.2,0.7,0.3
		c0.1,0,0.2,0,0.3,0c0.4,0,0.7,0,1-0.1c0.1,0,0.3-0.1,0.4-0.1c0.5-0.1,0.9-0.3,1.2-0.6c0.1-0.1,0.1-0.1,0.2-0.2
		c0-0.1,0.1-0.2,0.1-0.2c0-0.1,0.1-0.1,0.1-0.2c0-0.1,0-0.2,0-0.2C377.6,155.3,377.6,155.1,377.6,154.9z M347.5,145.5l7.1-15.4
		c0.6-1.4,1.4-2.2,2.3-2.5c0.3-0.1,0.6-0.2,0.9-0.2c0.2,0,0.3,0,0.5,0c1.1,0.2,2,1.1,2.8,2.6l7.1,15.4L347.5,145.5L347.5,145.5z"/>
</g>
</svg>
