<svg width="20" height="21" viewBox="0 0 20 21" fill="none" xmlns="http://www.w3.org/2000/svg">
<g id="Icon / Solid / Success">
<path id="Subtract" fill-rule="evenodd" clip-rule="evenodd" d="M17.5977 10.5059C17.5977 14.9241 14.0159 18.5059 9.59766 18.5059C5.17938 18.5059 1.59766 14.9241 1.59766 10.5059C1.59766 6.08758 5.17938 2.50586 9.59766 2.50586C14.0159 2.50586 17.5977 6.08758 17.5977 10.5059ZM13.3526 8.87544C13.587 8.64112 13.587 8.26122 13.3526 8.02691C13.1183 7.79259 12.7384 7.79259 12.5041 8.02691L11.8375 8.69357L10.5041 10.0269L8.26172 12.2693L7.35265 11.3602L6.68598 10.6936C6.45167 10.4593 6.07177 10.4593 5.83745 10.6936C5.60314 10.9279 5.60314 11.3078 5.83745 11.5421L6.50412 12.2088L7.83745 13.5421C7.94998 13.6546 8.10259 13.7178 8.26172 13.7178C8.42085 13.7178 8.57346 13.6546 8.68598 13.5421L11.3526 10.8754L12.686 9.5421L13.3526 8.87544Z" fill="#999999"/>
</g>
</svg>
