<?xml version="1.0" encoding="utf-8"?>
<!-- Generator: Adobe Illustrator 23.0.5, SVG Export Plug-In . SVG Version: 6.00 Build 0)  -->
<svg version="1.1" id="Layer_1" xmlns="http://www.w3.org/2000/svg" xmlns:xlink="http://www.w3.org/1999/xlink" x="0px" y="0px"
	 viewBox="0 0 574.4 81" style="enable-background:new 0 0 574.4 81;" xml:space="preserve">
<style type="text/css">
	.st0{fill:#007EE5;}
	.st1{fill:#2FA83D;}
	.st2{fill:#74AD23;}
</style>
<title>tri-small</title>
<polygon class="st0" points="44.5,31.2 59.3,16.3 50.8,7.8 0,58.7 17.1,58.7 35.3,40.6 74.8,80.1 93.3,80 93.3,80 "/>
<polygon class="st0" points="50.2,8.6 73.2,32.1 24.3,80.8 24.3,80.8 42.9,81 82.6,41.4 100.6,59.4 117.5,59.4 58.7,0 "/>
<circle class="st1" cx="58.7" cy="31.7" r="3.7"/>
<circle class="st1" cx="35.1" cy="55.7" r="3.7"/>
<circle class="st1" cx="84.3" cy="55.7" r="3.7"/>
<g>
	<path class="st0" d="M148.9,73.3V28.2h-17.3v-8.4h43.6v8.4h-17.3v45.1H148.9z"/>
	<path class="st0" d="M177.4,73.3V33.2h7.9V43l-1-1.3c0.5-1.3,1.2-2.5,2-3.7c0.8-1.1,1.8-2,3-2.7c1-0.7,2.1-1.2,3.3-1.6
		c2.4-0.8,4.9-0.9,7.4-0.5v8.4c-1.3-0.4-2.7-0.5-4.1-0.3c-1.5,0.1-2.9,0.5-4.2,1.3c-1.2,0.6-2.2,1.5-3,2.6c-0.8,1.1-1.4,2.3-1.7,3.6
		c-0.4,1.4-0.6,2.8-0.6,4.3v20.4H177.4z"/>
	<path class="st0" d="M207.8,27.1v-8.2h9v8.2H207.8z M207.8,73.3V33.2h9v40.2H207.8z"/>
	<path class="st0" d="M244,74.5c-3.4,0.1-6.8-0.9-9.7-2.8c-2.8-1.9-5-4.5-6.4-7.6c-1.6-3.4-2.3-7.1-2.3-10.8
		c-0.1-3.8,0.7-7.5,2.3-10.9c1.4-3.1,3.7-5.7,6.5-7.5c2.9-1.9,6.4-2.9,9.9-2.8c3.4-0.1,6.8,0.9,9.6,2.8c2.6,1.9,4.7,4.5,5.9,7.6
		c1.4,3.4,2.1,7.1,2,10.9c0.1,3.7-0.6,7.4-2,10.8c-1.2,3.1-3.3,5.7-6,7.6C251,73.6,247.5,74.6,244,74.5z M245.4,66.4
		c4.1,0.3,7.9-2.3,9.1-6.3c0.7-2.2,1.1-4.5,1-6.9c0-2.3-0.3-4.7-1-6.9c-0.6-1.8-1.7-3.4-3.2-4.6c-1.6-1.2-3.6-1.7-5.6-1.7
		c-2.1-0.1-4.2,0.5-6,1.8c-1.6,1.2-2.8,2.9-3.5,4.8c-0.8,2.1-1.1,4.4-1.1,6.6c0,2.3,0.3,4.5,1.1,6.7c0.6,1.9,1.8,3.5,3.4,4.7
		C241.3,65.9,243.3,66.5,245.4,66.4L245.4,66.4z M255.5,73.3V45.1h-1.1V19.8h9v53.5L255.5,73.3z"/>
	<path class="st0" d="M291.5,74.5c-3.7,0.1-7.3-0.9-10.5-2.7c-3-1.8-5.4-4.4-7-7.5c-1.7-3.4-2.5-7.2-2.5-11
		c-0.1-3.8,0.8-7.7,2.5-11.1c1.6-3.1,4-5.7,7-7.4c6.5-3.6,14.5-3.6,21,0c3,1.8,5.4,4.4,7,7.5c1.7,3.4,2.6,7.2,2.5,11
		c0.1,3.8-0.8,7.6-2.5,11c-1.6,3.1-4,5.7-7,7.5C298.9,73.6,295.2,74.5,291.5,74.5z M291.5,66c3.6,0,6.2-1.2,8-3.6
		c1.8-2.7,2.7-5.9,2.6-9.2c0.2-3.3-0.8-6.6-2.6-9.3c-1.8-2.3-4.4-3.5-7.9-3.5c-2.1-0.1-4.2,0.5-5.9,1.6c-1.6,1.1-2.8,2.7-3.4,4.5
		c-0.8,2.1-1.2,4.4-1.1,6.7c-0.2,3.3,0.8,6.6,2.7,9.3C285.6,64.9,288.5,66.2,291.5,66z"/>
	<path class="st0" d="M315.3,40.2v-7h28v7L315.3,40.2z M343.3,73.3c-2.6,0.5-5.2,0.7-7.8,0.7c-2.3,0-4.7-0.5-6.8-1.4
		c-2-0.8-3.6-2.3-4.6-4.2c-0.9-1.6-1.4-3.5-1.4-5.3c0-1.8-0.1-3.9-0.1-6.1V22h8.9v34.4c0,1.6,0,3,0.1,4.2c0,1,0.3,2.1,0.8,3
		c0.9,1.5,2.5,2.4,4.3,2.5c2.2,0.2,4.5,0.1,6.7-0.3L343.3,73.3z"/>
	<path class="st0" d="M367.5,74.5c-5,0-9-1.1-12.1-3.3c-3.1-2.2-5.1-5.6-5.7-9.4l9.1-1.4c0.4,1.9,1.5,3.6,3.1,4.7
		c1.8,1.2,3.9,1.8,6.1,1.7c1.8,0.1,3.5-0.3,5-1.3c1.1-0.8,1.8-2.1,1.8-3.5c0-0.8-0.2-1.6-0.7-2.2c-0.8-0.8-1.8-1.3-2.8-1.6
		c-1.5-0.5-3.7-1.2-6.7-2c-2.8-0.7-5.5-1.6-8-2.9c-1.7-0.8-3.2-2.1-4.3-3.7c-0.9-1.6-1.4-3.3-1.3-5.1c-0.1-2.3,0.6-4.6,2-6.5
		c1.4-1.9,3.3-3.4,5.5-4.3c2.6-1.1,5.5-1.6,8.3-1.5c2.8-0.1,5.7,0.4,8.3,1.5c2.3,0.9,4.3,2.3,5.9,4.1c1.5,1.8,2.4,4,2.8,6.3
		l-9.1,1.6c-0.2-1.6-1-3.1-2.3-4.1c-1.6-1.1-3.4-1.7-5.3-1.7c-1.8-0.2-3.5,0.1-5.1,0.9c-1.2,0.6-1.9,1.8-1.9,3.2
		c0,0.7,0.3,1.4,0.8,2c0.9,0.8,2,1.3,3.1,1.6c1.6,0.5,3.9,1.2,7,2c2.7,0.6,5.2,1.6,7.7,2.8c1.7,0.9,3.1,2.2,4.2,3.8
		c0.9,1.6,1.3,3.5,1.3,5.3c0.2,3.7-1.5,7.2-4.4,9.5C376.7,73.3,372.7,74.5,367.5,74.5z"/>
</g>
<g>
	<path class="st2" d="M423.7,73.3V28.2h-17.3v-8.4H450v8.4h-17.3v45.1H423.7z"/>
	<path class="st2" d="M468.2,74.5c-3.7,0.1-7.4-0.8-10.7-2.6c-3-1.7-5.5-4.3-7.2-7.3c-1.8-3.3-2.7-7-2.6-10.8
		c-0.1-4,0.8-7.9,2.5-11.4c1.6-3.1,4-5.7,7-7.5c3.2-1.8,6.8-2.8,10.4-2.7c3.8-0.1,7.5,0.9,10.6,2.9c3,2,5.2,4.9,6.5,8.2
		c1.5,4,2,8.3,1.6,12.5h-8.9v-3.3c0-4.4-0.8-7.5-2.3-9.6c-1.5-2-3.9-3-7.1-3c-3.7,0-6.4,1.1-8.2,3.4c-1.8,2.3-2.7,5.6-2.7,9.9
		c0,4.1,0.9,7.2,2.7,9.4c1.9,2.3,4.8,3.5,7.8,3.3c2,0.1,4-0.5,5.7-1.5c1.6-1,2.9-2.5,3.7-4.3L486,63c-1.4,3.5-3.9,6.4-7.1,8.4
		C475.7,73.4,472,74.5,468.2,74.5z M454.4,55.7V49H482v6.8H454.4z"/>
	<path class="st2" d="M512.2,74.5c-3.7,0.1-7.4-0.9-10.6-2.8c-2.9-1.8-5.2-4.5-6.7-7.6c-1.6-3.4-2.4-7.1-2.4-10.9
		c0-3.8,0.8-7.5,2.4-11c1.5-3.1,3.9-5.7,6.8-7.5c3.2-1.9,6.8-2.8,10.5-2.7c4.1-0.1,8.2,1.1,11.6,3.4c3.1,2.3,5.3,5.6,6.2,9.4
		l-8.9,2.4c-0.6-2-1.8-3.8-3.5-5c-1.6-1.2-3.5-1.8-5.5-1.8c-4.1-0.2-7.8,2.3-9.1,6.2c-0.7,2.1-1.1,4.3-1.1,6.6
		c-0.2,3.3,0.7,6.5,2.6,9.3c3.3,3.9,9,4.7,13.3,1.9c1.5-1.2,2.6-2.9,3.1-4.7l9.1,2c-1,3.8-3.3,7.1-6.5,9.4
		C520.2,73.4,516.2,74.6,512.2,74.5z"/>
	<path class="st2" d="M537.5,73.3V19.8h8V48h1.1v25.4L537.5,73.3z M565.3,73.3V54c0-1.4-0.1-2.8-0.3-4.2c-0.2-1.5-0.6-3-1.2-4.4
		c-0.6-1.4-1.6-2.6-2.8-3.5c-1.5-1-3.3-1.5-5.1-1.4c-1.2,0-2.3,0.2-3.4,0.6c-1.1,0.4-2.2,1-3,1.9c-1,1.1-1.7,2.3-2.2,3.7
		c-0.6,2-0.9,4-0.8,6l-5.3-2.3c0-3.2,0.6-6.4,2-9.3c1.3-2.7,3.3-5,5.9-6.6c2.9-1.7,6.2-2.6,9.5-2.5c2.5-0.1,5.1,0.4,7.4,1.5
		c1.8,0.9,3.4,2.2,4.6,3.8c1.1,1.5,2,3.1,2.5,4.9c0.5,1.6,0.9,3.3,1.1,4.9c0.2,1.5,0.2,2.8,0.2,3.8v22.4H565.3z"/>
</g>
<rect x="1551.9" y="-1384.8" class="st0" width="82.4" height="82.4"/>
</svg>
